<?xml version="1.0" encoding="UTF-8" standalone="no"?>
<!DOCTYPE svg PUBLIC "-//W3C//DTD SVG 20010904//EN"
              "http://www.w3.org/TR/2001/REC-SVG-20010904/DTD/svg10.dtd">

<svg xmlns="http://www.w3.org/2000/svg" viewBox="0 0 774 460" onclick="location.href='https://findsvoc.com';">
  <style> svg { cursor: pointer; } .animated{transform: translateZ(0);}</style>
<svg>
  <path id="fico" fill="#5a5376" d="M 481.00,193.00
           C 411.67,90.00 341.00,149.67 360.78,236.00
             390.00,351.00 477.33,305.33 494.33,271.00
             494.33,271.00 518.33,296.33 518.33,296.33
             420.62,393.79 290.00,329.00 292.00,220.00
             297.50,125.50 418.50,57.50 520.00,150.00
             520.00,150.00 485.92,190.47 481.00,193.00 Z
           M 646.42,106.68
           C 807.33,90.67 824.33,346.67 642.00,344.00
             483.00,326.67 508.33,114.67 646.42,106.68 Z
           M 596.00,224.00
           C 602.50,327.25 716.00,354.00 709.00,224.00
             697.75,120.00 593.25,101.50 596.00,224.00 Z
           M 253.00,161.25
           C 256.09,165.45 268.00,269.00 251.36,344.43
             251.36,344.43 206.18,344.36 206.18,344.36
             190.67,265.33 200.27,164.91 203.73,160.61
             206.64,156.91 249.91,157.04 253.00,161.25 Z
           M 117.09,184.00
           C 117.09,184.00 175.16,263.07 117.00,344.00
             117.00,344.00 48.55,344.00 48.55,344.00
             -8.92,257.63 48.55,184.00 48.55,184.00
             48.55,184.00 117.09,184.00 117.09,184.00 Z" />
  <path id="findSVOC" fill="#f9d37a" d="M 60.67,457.33
           C 50.72,457.33 48.69,458.09 48.67,447.33
             48.67,447.33 48.67,390.33 48.67,390.33
             49.67,365.83 69.08,367.28 76.67,367.33
             85.09,367.38 92.22,369.68 87.67,379.26
             82.06,376.04 67.51,374.04 62.42,379.21
             59.88,381.67 58.29,395.95 61.67,398.33
             63.52,399.56 87.67,399.33 87.67,399.33
             87.67,399.33 87.67,406.33 87.67,406.33
             87.67,406.33 60.67,407.33 60.67,407.33
             60.67,407.33 60.67,457.33 60.67,457.33 Z
           M 96.90,370.07
           C 107.22,365.15 111.03,378.24 102.62,381.46
             95.94,384.08 89.84,375.16 96.90,370.07 Z
           M 228.67,396.33
           C 228.67,396.33 228.54,373.12 229.27,371.64
             230.86,368.40 237.65,368.66 239.49,371.42
             239.49,371.42 238.94,450.69 238.94,450.69
             169.49,490.69 162.58,373.42 228.67,396.33 Z
           M 297.23,377.03
           C 300.34,378.60 306.51,383.89 302.07,387.49
             299.56,389.52 293.56,385.81 290.67,384.84
             265.12,376.51 250.22,398.88 272.67,407.31
             327.12,418.51 306.22,458.69 281.67,458.33
             262.22,458.33 251.49,455.97 250.33,446.37
             251.71,437.49 261.01,446.14 264.76,447.49
             302.76,457.97 299.31,425.78 289.00,423.93
             277.88,416.23 256.06,418.78 251.43,401.33
             250.82,399.01 246.76,363.42 297.23,377.03 Z
           M 419.85,373.42
           C 468.60,369.74 477.44,457.72 421.67,458.88
             368.22,460.15 366.76,377.06 419.85,373.42 Z
           M 525.23,377.03
           C 534.67,381.27 533.09,391.19 523.67,387.36
             459.67,362.51 464.40,473.78 526.65,444.94
             529.81,444.18 538.64,447.82 525.67,455.37
             446.22,484.88 449.12,347.97 525.23,377.03 Z
           M 344.40,447.78
           C 344.40,447.78 366.97,378.19 368.26,376.93
             369.43,375.79 375.31,371.97 378.40,378.51
             378.40,378.51 355.85,444.88 355.85,444.88
             351.67,456.88 350.58,457.60 343.67,457.31
             335.80,457.03 337.12,457.06 332.53,445.33
             332.53,445.33 309.12,378.33 309.12,378.33
             310.03,373.78 316.68,375.37 318.03,376.32
             320.90,378.33 344.40,447.78 344.40,447.78 Z
           M 417.67,382.62
           C 385.31,382.33 381.39,454.48 423.67,450.07
             459.85,443.42 457.49,382.51 417.67,382.62 Z
           M 130.67,457.33
           C 128.09,457.33 121.73,458.12 120.03,455.97
             118.61,454.16 119.67,411.33 119.67,411.33
             119.67,395.97 134.03,394.15 145.85,393.60
             161.02,393.98 172.03,399.24 172.94,409.06
             172.94,409.06 173.67,457.33 173.67,457.33
             170.96,457.33 165.70,458.18 163.67,456.15
             161.88,454.36 162.67,420.33 162.67,420.33
             162.53,407.40 157.49,402.15 145.76,402.11
             133.31,402.15 130.80,406.81 130.67,414.33
             130.67,414.33 130.67,457.33 130.67,457.33 Z
           M 95.67,394.33
           C 102.89,394.36 105.51,394.16 105.67,402.33
             105.67,402.33 105.67,457.33 105.67,457.33
             103.22,457.33 97.49,457.68 95.85,455.60
             94.06,453.33 95.67,394.33 95.67,394.33 Z
           M 228.40,447.24
           C 228.40,447.24 228.10,407.66 228.10,407.66
             185.85,381.42 178.76,464.51 228.40,447.24 Z" />
  <path id="f_beard" fill="white" d="M 49.00,133.00
           C 49.00,344.00 115.00,344.00 115.00,133.00
             115.00,133.00 49.00,133.00 49.00,133.00 Z" />
  <path id="f_face" fill="#ffcca9" d="M 49.00,133.00
           C 49.00,133.00 114.91,133.09 114.91,133.09
             115.27,161.27 105.82,175.45 105.82,175.45
             88.18,161.09 76.12,160.88 58.00,175.00
             58.00,175.00 48.75,161.25 49.00,133.00 Z
           M 95.09,184.00
           C 95.09,193.27 69.09,193.64 69.09,184.00
             68.91,168.18 95.09,168.73 95.09,184.00 Z" />
</svg>
<svg class="animated">
  <path id="hat" fill="#5a5376" d="M 159.91,134.55
           C 157.73,127.18 120.72,136.96 81.36,135.27
             42.73,132.76 14.03,129.36 4.50,134.75
             12.25,120.75 46.25,119.75 49.59,112.30
             49.95,17.20 206.25,-16.08 229.00,78.67
             220.64,45.39 115.09,14.91 114.73,112.91
             130.18,113.64 162.53,128.05 159.91,134.55 Z">
    <animate attributeName="d" values="M 159.91,134.55
           C 157.73,127.18 120.72,136.96 81.36,135.27
             42.73,132.76 14.03,129.36 4.50,134.75
             12.25,120.75 46.25,119.75 49.59,112.30
             49.95,17.20 206.25,-16.08 229.00,58.67
             220.64,45.39 115.09,14.91 114.73,112.91
             130.18,113.64 162.53,128.05 159.91,134.55 Z;
           M 159.91,134.55
           C 157.73,127.18 120.72,136.96 81.36,135.27
             42.73,132.76 14.03,129.36 4.50,134.75
             12.25,120.75 46.25,119.75 49.59,112.30
             49.95,17.20 206.25,-16.08 229.00,78.67
             220.64,45.39 115.09,14.91 114.73,112.91
             130.18,113.64 162.53,128.05 159.91,134.55 Z;
		   M 159.91,134.55
           C 157.73,127.18 120.72,136.96 81.36,135.27
             42.73,132.76 14.03,129.36 4.50,134.75
             12.25,120.75 46.25,119.75 49.59,112.30
             49.95,17.20 206.25,-16.08 229.00,58.67
             220.64,45.39 115.09,14.91 114.73,112.91
             130.18,113.64 162.53,128.05 159.91,134.55 Z"
		  dur="1s" repeatCount="indefinite" calcMode="spline"
		  keyTimes="0;0.5;1" keySplines="0.5 0 0.75 1;0.25 0.75 0.5 1"/>
  </path>
</svg>
<svg>
  <defs>
    <linearGradient id="hat_Grad" gradientTransform="rotate(15,.5,.5)">
	  <stop offset="0" stop-color="#312b4b" />
	  <stop offset="0.2" stop-color="#312b4b" />
	  <stop offset="0.63" stop-color="#5a5376" />
	  <stop offset="0.9" stop-color="#312b4b" />
	</linearGradient>

  </defs>
  <path id="hat_valley" fill="url(#hat_Grad)" d="M 114.27,113.18
           C 117.60,113.11 100.32,122.27 74.55,122.82
             74.77,123.12 105.87,117.95 104.55,116.18
             104.55,116.18 88.36,115.09 88.36,115.09
             88.88,114.56 112.02,115.79 114.27,113.18 Z
           M 147.27,22.36
           C 124.67,26.33 109.33,31.67 106.67,36.67
             106.67,36.67 127.25,35.25 127.25,35.25
             115.69,39.06 113.96,33.54 90.33,50.67
             80.46,61.42 81.33,62.00 75.33,83.33
             88.21,85.08 88.10,84.67 99.67,67.67
             90.27,87.98 93.29,87.62 75.67,90.00
             69.54,91.50 74.42,103.58 77.67,104.33
             77.80,104.91 92.50,109.09 91.69,105.44
             92.21,105.38 92.10,107.80 90.94,107.94
             91.10,108.56 51.78,115.03 50.25,112.50
             47.56,67.25 90.00,27.00 147.27,22.36 Z
           M 136.73,55.45
           C 136.22,59.20 119.24,56.51 119.64,53.64
             118.81,54.37 127.81,63.98 134.00,58.55
             134.00,58.55 136.73,55.45 136.73,55.45 Z
           M 125.82,66.91
           C 123.45,72.36 114.97,72.64 114.91,70.00
             114.75,70.36 121.15,76.72 122.55,73.64
             122.55,73.64 125.82,66.91 125.82,66.91 Z
           M 116.36,92.00
           C 115.27,95.27 105.11,96.76 104.36,96.18
             104.85,96.93 117.10,97.62 115.82,95.64
             115.82,95.64 116.36,92.00 116.36,92.00 Z
           M 4.48,134.78
           C 12.30,129.83 43.78,132.43 49.00,133.00
             49.00,133.00 49.00,139.00 49.00,139.00
             39.91,131.73 7.09,142.82 4.48,134.78 Z
           M 114.88,134.50
           C 114.88,134.50 115.06,140.19 115.06,140.19
             115.11,140.48 129.12,141.38 137.88,136.62
             144.00,133.25 158.76,136.50 159.81,134.75
             159.44,128.38 129.75,133.69 114.88,134.50 Z
           M 76.25,113.62
           C 76.25,113.62 49.88,113.38 49.88,113.38
             42.00,119.00 14.00,122.00 4.82,134.29
             7.78,130.83 36.28,131.40 38.35,132.09
             39.73,123.82 58.09,114.18 76.25,113.62 Z
           M 49.64,133.00
           C 60.00,133.91 92.18,137.55 114.36,134.36M 118.55,82.91
           C 118.48,85.99 109.61,85.43 109.64,84.00
             109.17,84.73 115.65,89.25 117.27,86.73
             117.27,86.73 118.55,82.91 118.55,82.91 Z" />
  <circle id="righteye" fill="black" cx="69" cy="148" r="3" stroke="none" stroke-width="3"/>			 
  <circle id="lefteye" fill="black" cx="95" cy="148" r="3" stroke="none" stroke-width="3"/>	
</svg>
<svg class="animated">
  <defs>
  	<linearGradient id="glass_Grad" gradientTransform="rotate(60,.5,.5)">
		<stop offset="0" stop-color="#ffffff77">
			<animate dur="2s" attributeName="offset" from="-0.3" to="1.0" repeatCount="indefinite"/>
		</stop>
		<stop offset="0.2" stop-color="white">
			<animate dur="2s" attributeName="offset" from="0" to="1.3" repeatCount="indefinite"/>
		</stop>
		<stop offset="0.3" stop-color="#ffffff77">
			<animate dur="2s" attributeName="offset" from="0.3" to="1.6" repeatCount="indefinite"/>
		</stop>
	</linearGradient>
  </defs>
  <circle id="glass" fill="url(#glass_Grad)" cx="95" cy="148" r="9" stroke="lightgray" stroke-width="2"/>
  <path id="glasslead" stroke="lightgray" stroke-width="2" fill="none" 
    stroke-linecap="round" stroke-dasharray="4 3" d="M 99,157 C 99,200 110,190 114,184"/>
  <circle id="i_head" fill="#5a5376" cx="228" r="21">
  <animate attributeName="cy" values="80; 130; 80" 
		  dur="1s" repeatCount="indefinite" calcMode="spline" fill="freeze"
		  keyTimes="0; 0.5; 1" keySplines="0.5 0 0.75 1; 0.25 0.75 0.5 1" />
  </circle>
</svg>
</svg>