<svg xmlns="http://www.w3.org/2000/svg" viewBox="0 0 1277 365"><style>svg{cursor:pointer;}.animated{transform:translateZ(0)}</style><path id="fico" fill="#5a5376" d="M481 193c-69.33-103-140-43.33-120.22 43 29.22 115 116.55 69.33 133.55 35l24 25.33C420.62 393.79 290 329 292 220c5.5-94.5 126.5-162.5 228-70 0 0-34.08 40.47-39 43Zm165.42-86.32C807.33 90.67 824.33 346.67 642 344c-159-17.33-133.67-229.33 4.42-237.32ZM596 224c6.5 103.25 120 130 113 0-11.25-104-115.75-122.5-113 0Zm-343-62.75c3.09 4.2 15 107.75-1.64 183.18l-45.18-.07c-15.51-79.03-5.91-179.45-2.45-183.75 2.91-3.7 46.18-3.57 49.27.64ZM117.09 184s58.07 79.07-.09 160H48.55c-57.47-86.37 0-160 0-160h68.54Z"/><path id="findSVOC" fill="#f9d37a" d="M787 115c-9.95 0-11.98.76-12-10V48c1-24.5 20.41-23.05 28-23 8.42.05 15.55 2.35 11 11.93-5.61-3.22-20.16-5.22-25.25-.05-2.54 2.46-4.13 16.74-.75 19.12 1.85 1.23 26 1 26 1v7l-27 1v50Zm36.23-87.26c10.32-4.92 14.13 8.17 5.72 11.39-6.68 2.62-12.78-6.3-5.72-11.39ZM955 54s-.13-23.21.6-24.69c1.59-3.24 8.38-2.98 10.22-.22l-.55 79.27c-69.45 40-76.36-77.27-10.27-54.36Zm68.56-19.3c3.11 1.57 9.28 6.86 4.84 10.46-2.51 2.03-8.51-1.68-11.4-2.65-25.55-8.33-40.45 14.04-18 22.47 54.45 11.2 33.55 51.38 9 51.02-19.45 0-30.18-2.36-31.34-11.96 1.38-8.88 10.68-.23 14.43 1.12 38 10.48 34.55-21.71 24.24-23.56-11.12-7.7-32.94-5.15-37.57-22.6-.61-2.32-4.67-37.91 45.8-24.3Zm122.62-3.61c48.75-3.68 57.59 84.3 1.82 85.46-53.45 1.27-54.91-81.82-1.82-85.46Zm105.38 3.61c9.44 4.24 7.86 14.16-1.56 10.33-64-24.85-59.27 86.42 2.98 57.58 3.16-.76 11.99 2.88-.98 10.43-79.45 29.51-76.55-107.4-.44-78.34Zm-180.83 70.75s22.57-69.59 23.86-70.85c1.17-1.14 7.05-4.96 10.14 1.58l-22.55 66.37c-4.18 12-5.27 12.72-12.18 12.43-7.87-.28-6.55-.25-11.14-11.98l-23.41-67c.91-4.55 7.56-2.96 8.91-2.01 2.87 2.01 26.37 71.46 26.37 71.46ZM1144 40.29c-32.36-.29-36.28 71.86 6 67.45 36.18-6.65 33.82-67.56-6-67.45ZM857 115c-2.58 0-8.94.79-10.64-1.36C844.94 111.83 846 69 846 69c0-15.36 14.36-17.18 26.18-17.73 15.17.38 26.18 5.64 27.09 15.46L900 115c-2.71 0-7.97.85-10-1.18-1.79-1.79-1-35.82-1-35.82-.14-12.93-5.18-18.18-16.91-18.22-12.45.04-14.96 4.7-15.09 12.22v43Zm-35-63c7.22.03 9.84-.17 10 8v55c-2.45 0-8.18.35-9.82-1.73C820.39 111 822 52 822 52Zm132.73 52.91-.3-39.58c-42.25-26.24-49.34 56.85.3 39.58Z"/><path id="f_beard" fill="#fff" d="M49 133c0 211 66 211 66 0H49Z"/><path id="f_face" fill="#ffcca9" d="m49 133 65.91.09c.36 28.18-9.09 42.36-9.09 42.36-17.64-14.36-29.7-14.57-47.82-.45 0 0-9.25-13.75-9-42Zm46.09 51c0 9.27-26 9.64-26 0-.18-15.82 26-15.27 26 0Z"/><path id="hat" class="animated" fill="#5a5376" d="M159.91 134.55c-2.18-7.37-39.19 2.41-78.55.72-38.63-2.51-67.33-5.91-76.86-.52 7.75-14 41.75-15 45.09-22.45C49.95 17.2 206.25-16.08 229 78.67c-8.36-33.28-113.91-63.76-114.27 34.24 15.45.73 47.8 15.14 45.18 21.64Z"><animate attributeName="d" values="M 159.91,134.55 C 157.73,127.18 120.72,136.96 81.36,135.27 42.73,132.76 14.03,129.36 4.50,134.75 12.25,120.75 46.25,119.75 49.59,112.30 49.95,17.20 206.25,-16.08 229.00,58.67 220.64,45.39 115.09,14.91 114.73,112.91 130.18,113.64 162.53,128.05 159.91,134.55 Z; M 159.91,134.55 C 157.73,127.18 120.72,136.96 81.36,135.27 42.73,132.76 14.03,129.36 4.50,134.75 12.25,120.75 46.25,119.75 49.59,112.30 49.95,17.20 206.25,-16.08 229.00,78.67 220.64,45.39 115.09,14.91 114.73,112.91 130.18,113.64 162.53,128.05 159.91,134.55 Z; M 159.91,134.55 C 157.73,127.18 120.72,136.96 81.36,135.27 42.73,132.76 14.03,129.36 4.50,134.75 12.25,120.75 46.25,119.75 49.59,112.30 49.95,17.20 206.25,-16.08 229.00,58.67 220.64,45.39 115.09,14.91 114.73,112.91 130.18,113.64 162.53,128.05 159.91,134.55 Z" dur="1s" repeatCount="indefinite" calcMode="spline" keyTimes="0;0.5;1" keySplines="0.5 0 0.75 1;0.25 0.75 0.5 1"/></path><defs><linearGradient id="hat_Grad" gradientTransform="rotate(15 .5 .5)"><stop offset="0" stop-color="#312b4b"/><stop offset=".2" stop-color="#312b4b"/><stop offset=".63" stop-color="#5a5376"/><stop offset=".9" stop-color="#312b4b"/></linearGradient></defs><path id="hat_valley" fill="url(#hat_Grad)" d="M114.27 113.18c3.33-.07-13.95 9.09-39.72 9.64.22.3 31.32-4.87 30-6.64l-16.19-1.09c.52-.53 23.66.7 25.91-1.91Zm33-90.82c-22.6 3.97-37.94 9.31-40.6 14.31l20.58-1.42c-11.56 3.81-13.29-1.71-36.92 15.42-9.87 10.75-9 11.33-15 32.66 12.88 1.75 12.77 1.34 24.34-15.66-9.4 20.31-6.38 19.95-24 22.33-6.13 1.5-1.25 13.58 2 14.33.13.58 14.83 4.76 14.02 1.11.52-.06.41 2.36-.75 2.5.16.62-39.16 7.09-40.69 4.56C47.56 67.25 90 27 147.27 22.36Zm-10.54 33.09c-.51 3.75-17.49 1.06-17.09-1.81-.83.73 8.17 10.34 14.36 4.91l2.73-3.1Zm-10.91 11.46c-2.37 5.45-10.85 5.73-10.91 3.09-.16.36 6.24 6.72 7.64 3.64l3.27-6.73ZM116.36 92c-1.09 3.27-11.25 4.76-12 4.18.49.75 12.74 1.44 11.46-.54l.54-3.64ZM4.48 134.78c7.82-4.95 39.3-2.35 44.52-1.78v6c-9.09-7.27-41.91 3.82-44.52-4.22Zm110.4-.28.18 5.69c.05.29 14.06 1.19 22.82-3.57 6.12-3.37 20.88-.12 21.93-1.87-.37-6.37-30.06-1.06-44.93-.25Zm-38.63-20.88-26.37-.24C42 119 14 122 4.82 134.29c2.96-3.46 31.46-2.89 33.53-2.2 1.38-8.27 19.74-17.91 37.9-18.47ZM49.64 133c10.36.91 42.54 4.55 64.72 1.36m4.19-51.45c-.07 3.08-8.94 2.52-8.91 1.09-.47.73 6.01 5.25 7.63 2.73l1.28-3.82Z"/><circle id="righteye" fill="#000" cx="69" cy="148" r="3" stroke="none" stroke-width="3"/><circle id="lefteye" fill="#000" cx="95" cy="148" r="3" stroke="none" stroke-width="3"/><defs><linearGradient id="glass_Grad" gradientTransform="rotate(60 .5 .5)"><stop offset="0" stop-color="#ffffff77"><animate dur="2s" attributeName="offset" from="-.3" to="1" repeatCount="indefinite"/></stop><stop offset=".2" stop-color="#fff"><animate dur="2s" attributeName="offset" from="0" to="1.3" repeatCount="indefinite"/></stop><stop offset=".3" stop-color="#ffffff77"><animate dur="2s" attributeName="offset" from=".3" to="1.6" repeatCount="indefinite"/></stop></linearGradient></defs><circle id="glass" class="animated" fill="url(#glass_Grad)" cx="95" cy="148" r="9" stroke="#d3d3d3" stroke-width="2"/><path id="glasslead" stroke="#d3d3d3" stroke-width="2" fill="none" stroke-linecap="round" stroke-dasharray="4 3" d="M99 157c0 43 11 33 15 27"/><circle id="i_head" class="animated" fill="#5a5376" cx="228" r="21"><animate attributeName="cy" values="80;130;80" dur="1s" repeatCount="indefinite" calcMode="spline" keyTimes="0;0.5;1" keySplines="0.5 0 0.75 1;0.25 0.75 0.5 1"/></circle></svg>
