<?xml version="1.0" encoding="UTF-8" standalone="no"?>
<!DOCTYPE svg PUBLIC "-//W3C//DTD SVG 20010904//EN"
              "http://www.w3.org/TR/2001/REC-SVG-20010904/DTD/svg10.dtd">

<svg xmlns="http://www.w3.org/2000/svg" viewBox="0 0 1277 365">
  <defs>
    <linearGradient id="hat_Grad" gradientTransform="rotate(15,.5,.5)">
	  <stop offset="0" stop-color="#312b4b" />
	  <stop offset="0.2" stop-color="#312b4b" />
	  <stop offset="0.63" stop-color="#5a5376" />
	  <stop offset="0.9" stop-color="#312b4b" />
	</linearGradient>
  	<linearGradient id="glass_Grad" gradientTransform="rotate(60)">
		<stop offset="0%" stop-color="#ffffff77"/>
		<stop offset="29%" stop-color="#ffffff77"/>
		<stop offset="30%" stop-color="white"/>
		<stop offset="50%" stop-color="white"/>
		<stop offset="51%" stop-color="#ffffff77"/>
		<stop offset="79%" stop-color="#ffffff77"/>
		<stop offset="80%" stop-color="white"/>
		<stop offset="90%" stop-color="white"/>
		<stop offset="91%" stop-color="#ffffff77"/>
	</linearGradient>
  </defs>
  <path id="fico" fill="#5a5376" d="M 481.00,193.00
           C 411.67,90.00 341.00,149.67 360.78,236.00
             390.00,351.00 477.33,305.33 494.33,271.00
             494.33,271.00 518.33,296.33 518.33,296.33
             420.62,393.79 290.00,329.00 292.00,220.00
             297.50,125.50 418.50,57.50 520.00,150.00
             520.00,150.00 485.92,190.47 481.00,193.00 Z
           M 646.42,106.68
           C 807.33,90.67 824.33,346.67 642.00,344.00
             483.00,326.67 508.33,114.67 646.42,106.68 Z
           M 596.00,224.00
           C 602.50,327.25 716.00,354.00 709.00,224.00
             697.75,120.00 593.25,101.50 596.00,224.00 Z
           M 253.00,161.25
           C 256.09,165.45 268.00,269.00 251.36,344.43
             251.36,344.43 206.18,344.36 206.18,344.36
             190.67,265.33 200.27,164.91 203.73,160.61
             206.64,156.91 249.91,157.04 253.00,161.25 Z
           M 117.09,184.00
           C 117.09,184.00 175.16,263.07 117.00,344.00
             117.00,344.00 48.55,344.00 48.55,344.00
             -8.92,257.63 48.55,184.00 48.55,184.00
             48.55,184.00 117.09,184.00 117.09,184.00 Z" />
  <circle id="i_head" fill="#5a5376" cx="228" cy="100" r="21"/>
  <path id="findSVOC" fill="#f9d37a" d="M 787.00,115.00
           C 777.05,115.00 775.02,115.76 775.00,105.00
             775.00,105.00 775.00,48.00 775.00,48.00
             776.00,23.50 795.41,24.95 803.00,25.00
             811.42,25.05 818.55,27.35 814.00,36.93
             808.39,33.71 793.84,31.71 788.75,36.88
             786.21,39.34 784.62,53.62 788.00,56.00
             789.85,57.23 814.00,57.00 814.00,57.00
             814.00,57.00 814.00,64.00 814.00,64.00
             814.00,64.00 787.00,65.00 787.00,65.00
             787.00,65.00 787.00,115.00 787.00,115.00 Z
           M 823.23,27.74
           C 833.55,22.82 837.36,35.91 828.95,39.13
             822.27,41.75 816.17,32.83 823.23,27.74 Z
           M 955.00,54.00
           C 955.00,54.00 954.87,30.79 955.60,29.31
             957.19,26.07 963.98,26.33 965.82,29.09
             965.82,29.09 965.27,108.36 965.27,108.36
             895.82,148.36 888.91,31.09 955.00,54.00 Z
           M 1023.56,34.70
           C 1026.67,36.27 1032.84,41.56 1028.40,45.16
             1025.89,47.19 1019.89,43.48 1017.00,42.51
             991.45,34.18 976.55,56.55 999.00,64.98
             1053.45,76.18 1032.55,116.36 1008.00,116.00
             988.55,116.00 977.82,113.64 976.66,104.04
             978.04,95.16 987.34,103.81 991.09,105.16
             1029.09,115.64 1025.64,83.45 1015.33,81.60
             1004.21,73.90 982.39,76.45 977.76,59.00
             977.15,56.68 973.09,21.09 1023.56,34.70 Z
           M 1146.18,31.09
           C 1194.93,27.41 1203.77,115.39 1148.00,116.55
             1094.55,117.82 1093.09,34.73 1146.18,31.09 Z
           M 1251.56,34.70
           C 1261.00,38.94 1259.42,48.86 1250.00,45.03
             1186.00,20.18 1190.73,131.45 1252.98,102.61
             1256.14,101.85 1264.97,105.49 1252.00,113.04
             1172.55,142.55 1175.45,5.64 1251.56,34.70 Z
           M 1070.73,105.45
           C 1070.73,105.45 1093.30,35.86 1094.59,34.60
             1095.76,33.46 1101.64,29.64 1104.73,36.18
             1104.73,36.18 1082.18,102.55 1082.18,102.55
             1078.00,114.55 1076.91,115.27 1070.00,114.98
             1062.13,114.70 1063.45,114.73 1058.86,103.00
             1058.86,103.00 1035.45,36.00 1035.45,36.00
             1036.36,31.45 1043.01,33.04 1044.36,33.99
             1047.23,36.00 1070.73,105.45 1070.73,105.45 Z
           M 1144.00,40.29
           C 1111.64,40.00 1107.72,112.15 1150.00,107.74
             1186.18,101.09 1183.82,40.18 1144.00,40.29 Z
           M 857.00,115.00
           C 854.42,115.00 848.06,115.79 846.36,113.64
             844.94,111.83 846.00,69.00 846.00,69.00
             846.00,53.64 860.36,51.82 872.18,51.27
             887.35,51.65 898.36,56.91 899.27,66.73
             899.27,66.73 900.00,115.00 900.00,115.00
             897.29,115.00 892.03,115.85 890.00,113.82
             888.21,112.03 889.00,78.00 889.00,78.00
             888.86,65.07 883.82,59.82 872.09,59.78
             859.64,59.82 857.13,64.48 857.00,72.00
             857.00,72.00 857.00,115.00 857.00,115.00 Z
           M 822.00,52.00
           C 829.22,52.03 831.84,51.83 832.00,60.00
             832.00,60.00 832.00,115.00 832.00,115.00
             829.55,115.00 823.82,115.35 822.18,113.27
             820.39,111.00 822.00,52.00 822.00,52.00 Z
           M 954.73,104.91
           C 954.73,104.91 954.43,65.33 954.43,65.33
             912.18,39.09 905.09,122.18 954.73,104.91 Z" />
  <path id="f_beard" fill="white" d="M 49.00,133.00
           C 49.00,344.00 115.00,344.00 115.00,133.00
             115.00,133.00 49.00,133.00 49.00,133.00 Z" />
  <path id="f_face" fill="#ffcca9" d="M 49.00,133.00
           C 49.00,133.00 114.91,133.09 114.91,133.09
             115.27,161.27 105.82,175.45 105.82,175.45
             88.18,161.09 76.12,160.88 58.00,175.00
             58.00,175.00 48.75,161.25 49.00,133.00 Z
           M 95.09,184.00
           C 95.09,193.27 69.09,193.64 69.09,184.00
             68.91,168.18 95.09,168.73 95.09,184.00 Z" />
  <path id="hat" fill="#5a5376" d="M 159.91,134.55
           C 157.73,127.18 120.72,136.96 81.36,135.27
             42.73,132.76 14.03,129.36 4.50,134.75
             12.25,120.75 46.25,119.75 49.59,112.30
             49.95,17.20 206.25,-16.08 229.00,78.67
             220.64,45.39 115.09,14.91 114.73,112.91
             130.18,113.64 162.53,128.05 159.91,134.55 Z" />
  <path id="hat_valley" fill="url(#hat_Grad)" d="M 114.27,113.18
           C 117.60,113.11 100.32,122.27 74.55,122.82
             74.77,123.12 105.87,117.95 104.55,116.18
             104.55,116.18 88.36,115.09 88.36,115.09
             88.88,114.56 112.02,115.79 114.27,113.18 Z
           M 147.27,22.36
           C 124.67,26.33 109.33,31.67 106.67,36.67
             106.67,36.67 127.25,35.25 127.25,35.25
             115.69,39.06 113.96,33.54 90.33,50.67
             80.46,61.42 81.33,62.00 75.33,83.33
             88.21,85.08 88.10,84.67 99.67,67.67
             90.27,87.98 93.29,87.62 75.67,90.00
             69.54,91.50 74.42,103.58 77.67,104.33
             77.80,104.91 92.50,109.09 91.69,105.44
             92.21,105.38 92.10,107.80 90.94,107.94
             91.10,108.56 51.78,115.03 50.25,112.50
             47.56,67.25 90.00,27.00 147.27,22.36 Z
           M 136.73,55.45
           C 136.22,59.20 119.24,56.51 119.64,53.64
             118.81,54.37 127.81,63.98 134.00,58.55
             134.00,58.55 136.73,55.45 136.73,55.45 Z
           M 125.82,66.91
           C 123.45,72.36 114.97,72.64 114.91,70.00
             114.75,70.36 121.15,76.72 122.55,73.64
             122.55,73.64 125.82,66.91 125.82,66.91 Z
           M 116.36,92.00
           C 115.27,95.27 105.11,96.76 104.36,96.18
             104.85,96.93 117.10,97.62 115.82,95.64
             115.82,95.64 116.36,92.00 116.36,92.00 Z
           M 4.48,134.78
           C 12.30,129.83 43.78,132.43 49.00,133.00
             49.00,133.00 49.00,139.00 49.00,139.00
             39.91,131.73 7.09,142.82 4.48,134.78 Z
           M 114.88,134.50
           C 114.88,134.50 115.06,140.19 115.06,140.19
             115.11,140.48 129.12,141.38 137.88,136.62
             144.00,133.25 158.76,136.50 159.81,134.75
             159.44,128.38 129.75,133.69 114.88,134.50 Z
           M 76.25,113.62
           C 76.25,113.62 49.88,113.38 49.88,113.38
             42.00,119.00 14.00,122.00 4.82,134.29
             7.78,130.83 36.28,131.40 38.35,132.09
             39.73,123.82 58.09,114.18 76.25,113.62 Z
           M 49.64,133.00
           C 60.00,133.91 92.18,137.55 114.36,134.36M 118.55,82.91
           C 118.48,85.99 109.61,85.43 109.64,84.00
             109.17,84.73 115.65,89.25 117.27,86.73
             117.27,86.73 118.55,82.91 118.55,82.91 Z" />
  <circle id="righteye" fill="black" cx="69" cy="148" r="3" stroke="none" stroke-width="3"/>			 
  <circle id="lefteye" fill="black" cx="95" cy="148" r="3" stroke="none" stroke-width="3"/>	
  <circle id="glass" fill="url(#glass_Grad)" cx="95" cy="148" r="9" stroke="lightgray" stroke-width="2"/>
  <path id="glasslead" stroke="lightgray" stroke-width="2" fill="none" 
    stroke-linecap="round" stroke-dasharray="4 3" d="M 99,157 C 99,200 110,190 114,184"/>
</svg>
