<svg xmlns="http://www.w3.org/2000/svg" onclick="location.href='https://findsvoc.com';" viewBox="0 0 774 460"><style>svg{cursor:pointer}.prefix__animated{transform:translateZ(0)}</style><svg><path id="prefix__fico" fill="#5a5376" d="M481 193c-69.3-103-140-43.3-120.2 43 29.2 115 116.5 69.3 133.5 35l24 25.3C420.6 393.8 290 329 292 220c5.5-94.5 126.5-162.5 228-70 0 0-34 40.5-39 43Zm165.4-86.3c161-16 178 240-4.4 237.3-159-17.3-133.7-229.3 4.4-237.3ZM596 224c6.5 103.3 120 130 113 0-11.3-104-115.8-122.5-113 0Zm-343-62.8c3 4.3 15 107.8-1.6 183.2h-45.2c-15.5-79-6-179.5-2.5-183.8 3-3.7 46.2-3.6 49.3.7ZM117 184s58.2 79 0 160H48.5c-57.4-86.4 0-160 0-160h68.6Z"/><path id="prefix__findSVOC" fill="#f9d37a" d="M60.7 457.3c-10 0-12 .8-12-10v-57c1-24.5 20.4-23 28-23 8.4 0 15.5 2.4 11 12-5.6-3.3-20.2-5.3-25.3 0-2.5 2.4-4.1 16.6-.7 19 1.8 1.3 26 1 26 1v7l-27 1v50Zm36.2-87.2c10.3-5 14.1 8.1 5.7 11.4C96 384 89.8 375.2 97 370Zm131.8 26.2s-.2-23.2.6-24.7c1.6-3.2 8.3-3 10.2-.2l-.6 79.3c-69.4 40-76.3-77.3-10.2-54.4Zm68.5-19.3c3.1 1.6 9.3 6.9 4.9 10.5-2.5 2-8.5-1.7-11.4-2.7-25.6-8.3-40.5 14-18 22.5 54.4 11.2 33.5 51.4 9 51-19.5 0-30.2-2.3-31.4-12 1.4-8.8 10.7-.2 14.5 1.2 38 10.5 34.5-21.7 24.2-23.6-11.1-7.7-33-5.1-37.6-22.6-.6-2.3-4.6-37.9 45.8-24.3Zm122.7-3.6c48.7-3.7 57.5 84.3 1.8 85.5-53.5 1.3-55-81.8-1.8-85.5Zm105.3 3.6c9.5 4.3 7.9 14.2-1.5 10.4-64-24.9-59.3 86.4 3 57.5 3.1-.7 12 3-1 10.5-79.5 29.5-76.6-107.4-.5-78.4Zm-180.8 70.8s22.6-69.6 23.9-70.9c1.1-1.1 7-5 10.1 1.6L355.9 445c-4.2 12-5.3 12.7-12.2 12.4-7.9-.3-6.6-.2-11.2-12l-23.4-67c1-4.5 7.6-3 9-2 2.8 2 26.3 71.5 26.3 71.5Zm73.3-65.2c-32.4-.3-36.3 71.9 6 67.5 36.2-6.7 33.8-67.6-6-67.5Zm-287 74.7c-2.6 0-9 .8-10.7-1.3-1.4-1.8-.3-44.7-.3-44.7 0-15.3 14.3-17.2 26.1-17.7 15.2.4 26.2 5.6 27.1 15.5l.8 48.2c-2.7 0-8 .9-10-1.2-1.8-1.7-1-35.8-1-35.8-.2-12.9-5.2-18.2-17-18.2-12.4 0-14.9 4.7-15 12.2v43Zm-35-63c7.2 0 9.8-.1 10 8v55c-2.5 0-8.2.4-9.9-1.7-1.7-2.3-.1-61.3-.1-61.3Zm132.7 53-.3-39.6c-42.3-26.3-49.3 56.8.3 39.5Z"/><path id="prefix__f_beard" fill="#fff" d="M49 133c0 211 66 211 66 0H49Z"/><path id="prefix__f_face" fill="#ffcca9" d="M49 133h66c.3 28.3-9.2 42.4-9.2 42.4C88.2 161.1 76.1 161 58 175c0 0-9.3-13.8-9-42Zm46 51c0 9.3-26 9.6-26 0 0-15.8 26-15.3 26 0Z"/></svg><svg class="prefix__animated"><path id="prefix__hat" fill="#5a5376" d="M160 134.6c-2.3-7.4-39.3 2.4-78.6.7-38.7-2.5-67.4-6-76.9-.6 7.8-14 41.8-15 45-22.4C50 17.2 206.4-16.1 229 78.7c-8.4-33.3-114-63.8-114.3 34.2 15.5.7 47.8 15.2 45.2 21.7Z"><animate attributeName="d" calcMode="spline" dur="1s" keySplines="0.5 0 0.75 1;0.25 0.75 0.5 1" keyTimes="0;0.5;1" repeatCount="indefinite" values="M 159.91,134.55 C 157.73,127.18 120.72,136.96 81.36,135.27 42.73,132.76 14.03,129.36 4.50,134.75 12.25,120.75 46.25,119.75 49.59,112.30 49.95,17.20 206.25,-16.08 229.00,58.67 220.64,45.39 115.09,14.91 114.73,112.91 130.18,113.64 162.53,128.05 159.91,134.55 Z; M 159.91,134.55 C 157.73,127.18 120.72,136.96 81.36,135.27 42.73,132.76 14.03,129.36 4.50,134.75 12.25,120.75 46.25,119.75 49.59,112.30 49.95,17.20 206.25,-16.08 229.00,78.67 220.64,45.39 115.09,14.91 114.73,112.91 130.18,113.64 162.53,128.05 159.91,134.55 Z; M 159.91,134.55 C 157.73,127.18 120.72,136.96 81.36,135.27 42.73,132.76 14.03,129.36 4.50,134.75 12.25,120.75 46.25,119.75 49.59,112.30 49.95,17.20 206.25,-16.08 229.00,58.67 220.64,45.39 115.09,14.91 114.73,112.91 130.18,113.64 162.53,128.05 159.91,134.55 Z"/></path></svg><svg><defs><linearGradient id="prefix__hat_Grad" gradientTransform="rotate(15 .5 .5)"><stop offset="0" stop-color="#312b4b"/><stop offset=".2" stop-color="#312b4b"/><stop offset=".6" stop-color="#5a5376"/><stop offset=".9" stop-color="#312b4b"/></linearGradient></defs><path id="prefix__hat_valley" fill="url(#prefix__hat_Grad)" d="M114.3 113.2c3.3 0-14 9-39.8 9.6.3.3 31.4-4.8 30-6.6L88.4 115c.5-.5 23.6.7 25.9-2Zm33-90.8c-22.6 4-38 9.3-40.6 14.3l20.5-1.5c-11.5 3.9-13.2-1.7-36.9 15.5-9.8 10.7-9 11.3-15 32.6 13 1.8 12.8 1.4 24.4-15.6-9.4 20.3-6.4 20-24 22.3-6.2 1.5-1.3 13.6 2 14.3.1.6 14.8 4.8 14 1.1.5 0 .4 2.4-.8 2.5.2.7-39.1 7.1-40.7 4.6-2.6-45.3 39.8-85.5 97-90.1Zm-10.6 33c-.5 3.8-17.5 1.1-17-1.8-.9.8 8.1 10.4 14.3 5l2.7-3.1ZM125.8 67c-2.3 5.5-10.8 5.7-10.9 3.1-.2.4 6.3 6.7 7.6 3.6l3.3-6.7ZM116.4 92c-1.1 3.3-11.3 4.8-12 4.2.4.7 12.7 1.4 11.4-.6l.6-3.6Zm-112 42.8c7.9-5 39.4-2.4 44.6-1.8v6c-9-7.3-42 3.8-44.5-4.2Zm110.5-.3.2 5.7c0 .3 14 1.2 22.8-3.6 6.1-3.3 20.9-.1 22-1.8-.5-6.4-30.2-1.1-45-.3Zm-38.7-20.9-26.3-.2C42 119 14 122 4.9 134.3c2.9-3.5 31.4-2.9 33.5-2.2 1.3-8.3 19.7-18 37.9-18.5ZM49.6 133c10.4 1 42.6 4.6 64.8 1.4m4.1-51.5c0 3-8.9 2.5-8.9 1.1-.4.7 6 5.3 7.7 2.7l1.3-3.8Z"/><circle id="prefix__righteye" cx="69" cy="148" r="3" fill="#000" stroke="none" stroke-width="3"/><circle id="prefix__lefteye" cx="95" cy="148" r="3" fill="#000" stroke="none" stroke-width="3"/></svg><svg class="prefix__animated"><defs><linearGradient id="prefix__glass_Grad" gradientTransform="rotate(60 .5 .5)"><stop offset="0" stop-color="#ffffff77"><animate attributeName="offset" dur="2s" from="-.3" repeatCount="indefinite" to="1"/></stop><stop offset=".2" stop-color="#fff"><animate attributeName="offset" dur="2s" from="0" repeatCount="indefinite" to="1.3"/></stop><stop offset=".3" stop-color="#ffffff77"><animate attributeName="offset" dur="2s" from=".3" repeatCount="indefinite" to="1.6"/></stop></linearGradient></defs><circle id="prefix__glass" cx="95" cy="148" r="9" fill="url(#prefix__glass_Grad)" stroke="#d3d3d3" stroke-width="2"/><path id="prefix__glasslead" fill="none" stroke="#d3d3d3" stroke-dasharray="4 3" stroke-linecap="round" stroke-width="2" d="M99 157c0 43 11 33 15 27"/><circle id="prefix__i_head" cx="228" r="21" fill="#5a5376"><animate fill="freeze" attributeName="cy" calcMode="spline" dur="1s" keySplines="0.5 0 0.75 1; 0.25 0.75 0.5 1" keyTimes="0; 0.5; 1" repeatCount="indefinite" values="80; 130; 80"/></circle></svg></svg>
