<svg xmlns="http://www.w3.org/2000/svg" viewBox="-95 10 355 334"><style>.a{transform:translateZ(0)}</style><defs><linearGradient id="a" gradientTransform="rotate(90)"><stop offset=".4" stop-color="#5a5376"/><stop offset=".9" stop-color="transparent"/></linearGradient><linearGradient id="b" gradientTransform="rotate(90)"><stop offset="0" stop-color="#312b4b"/><stop offset="1" stop-color="transparent"/></linearGradient><linearGradient id="d" gradientTransform="rotate(15,.5,.5)"><stop offset="0" stop-color="#312b4b"/><stop offset=".2" stop-color="#312b4b"/><stop offset=".6" stop-color="#5a5376"/><stop offset=".9" stop-color="#312b4b"/></linearGradient><linearGradient id="e" gradientTransform="rotate(60,.5,.5)"><stop offset="-.6" stop-color="#ffffff77"><animate id="a1" dur="0.5s" attributeName="offset" from="-.6" to="1" begin="3.8s;a1.end+3.8s"/></stop><stop offset="-.3" stop-color="#fff"><animate id="a2" dur="0.5s" attributeName="offset" from="-.3" to="1.3" begin="3.8s;a2.end+3.8s"/></stop><stop offset="0" stop-color="#ffffff77"><animate id="a3" dur="0.5s" attributeName="offset" from="0" to="1.6" begin="3.8s;a3.end+3.8s"/></stop></linearGradient><radialGradient id="c" cy="33%" fy="33%" fr="10%" r=".5"><stop offset="0" stop-color="#fff"/><stop offset="1" stop-color="#aaa"/></radialGradient></defs><svg><path fill="url(#a)" d="M117 184s58.2 79 0 160H48.5c-57.4-86.4 0-160 0-160h68.6Z"/><path fill="url(#b)" d="M74.3 323.2c9.2 0 9.5-75 1-74.5s-3 74-1 74.5ZM92 248.7c-9.3.2-7.5 74.7 1.3 74.7 2.3.1 8-75-1.3-74.7Zm2.2 75c16.1-7.5 32.3-61.3 32.3-61.3s-6.7 31.3-11.5 38.3c11.8-8.5 19.3-49.8 19.3-49.8s-2.3 20.8-4.7 26.8a83 83 0 0 0 9-35s1.4 37.4-4.9 39.6c0 0 1 15.2-7 16-3.6 13-4.2 22.6-32.5 25.4Zm0-76.4c12.3-9.3 16 3.7 23.4 6.7 0 0-8.3-9.4-9.1-8.8 8.8-9 20-.3 20-.3s-4.5-4.4-9-5.2l10.5-1.1s-7.1-1.3-7.8-.3c-1-5.9 2.5-14.3 2.5-14.3s-3.7 6.2-3.8 11.7l-13.8 8.9c-4-4.4-13 2.7-13 2.7ZM72 323.9C52 319 52.5 310.2 50 298 38 294 39.4 278 39.4 278c-10.3-1.4-12.2-36-12.2-36S33 267.1 37.8 272c-2.4-7.5-2.4-19.5-2.4-19.5s3.1 20 10.4 34.9c-3.8-12-2.4-22.4-2.4-22.4s9.1 29.5 28.6 59Zm2.5-76.4c-13-4.3-25 7.3-25 7.3s6-7.5 11.7-8.8c-12.4-9.2-20-3.8-20-3.8 1.9-2.3 6-2.9 6-2.9s-3.6-2.4-11.6-1.6c1.1-1.2 9.5-1.3 9.5-1.3s-.6-6-6.2-11.1c0 0 5.7 4.7 6.5 7.3 2.3-2.8 5.8-1.8 5.8-1.8s-3.7 1.5-4.5 3.1c0 0 1.1 2.4 1.6 4.3 4.2.2 14.8 6 14.8 6s5.2.5 11.4 3.3Z"/><path fill="url(#c)" d="M49 133c0 211 66 211 66 0H49Z"/><path fill="#ffcca9" d="M49 133h66c.3 28.3-9.2 42.4-9.2 42.4C88.2 161.1 76.1 161 58 175c0 0-9.3-13.8-9-42Zm46 51c0 9.3-26 9.6-26 0 0-15.8 26-15.3 26 0Z"/><path fill="#5a5376" d="M160 134.6c-2.3-7.4-39.3 2.4-78.6.7-38.7-2.5-67.4-6-76.9-.6 7.8-14 41.8-15 45-22.4C50 17.2 206.4-16.1 229 78.7c-8.4-33.3-114-63.8-114.3 34.2 15.5.7 47.8 15.2 45.2 21.7Z"/><path fill="url(#d)" d="M114.3 113.2c3.3 0-14 9-39.8 9.6.3.3 31.4-4.8 30-6.6L88.4 115c.5-.5 23.6.7 25.9-2Zm33-90.8c-22.6 4-38 9.3-40.6 14.3l20.5-1.5c-11.5 3.9-13.2-1.7-36.9 15.5-9.8 10.7-9 11.3-15 32.6 13 1.8 12.8 1.4 24.4-15.6-9.4 20.3-6.4 20-24 22.3-6.2 1.5-1.3 13.6 2 14.3.1.6 14.8 4.8 14 1.1.5 0 .4 2.4-.8 2.5.2.7-39.1 7.1-40.7 4.6-2.6-45.3 39.8-85.5 97-90.1Zm-10.6 33c-.5 3.8-17.5 1.1-17-1.8-.9.8 8.1 10.4 14.3 5l2.7-3.1ZM125.8 67c-2.3 5.5-10.8 5.7-10.9 3.1-.2.4 6.3 6.7 7.6 3.6l3.3-6.7ZM116.4 92c-1.1 3.3-11.3 4.8-12 4.2.4.7 12.7 1.4 11.4-.6l.6-3.6Zm-112 42.8c7.9-5 39.4-2.4 44.6-1.8v6c-9-7.3-42 3.8-44.5-4.2Zm110.5-.3.2 5.7c0 .3 14 1.2 22.8-3.6 6.1-3.3 20.9-.1 22-1.8-.5-6.4-30.2-1.1-45-.3Zm-38.7-20.9-26.3-.2C42 119 14 122 4.9 134.3c2.9-3.5 31.4-2.9 33.5-2.2 1.3-8.3 19.7-18 37.9-18.5ZM49.6 133c10.4 1 42.6 4.6 64.8 1.4m4.1-51.5c0 3-8.9 2.5-8.9 1.1-.4.7 6 5.3 7.7 2.7l1.3-3.8Z"/></svg><svg class="a"><path fill="#000" d="M66 148a3 3 0 1 1 6 0 3 3 0 1 1-6 0"><animate attributeName="d" values="M 66,148 a 3,3 0 1,1 6,0 a 3,3 0 1,1 -6,0;M 66,148 a 3,3 0 1,1 6,0 a 3,3 0 1,1 -6,0;M 66,148 a 3,0.5 0 1,1 6,0 a 3,0.5 0 1,1 -6,0;M 66,148 a 3,0.5 0 1,1 6,0 a 3,0.5 0 1,1 -6,0;M 66,148 a 3,3 0 1,1 6,0 a 3,3 0 1,1 -6,0;M 66,148 a 3,3 0 1,1 6,0 a 3,3 0 1,1 -6,0" dur="10.7s" repeatCount="indefinite" calcMode="spline" keyTimes="0;0.69;0.7;0.98;0.99;1" keySplines="0 0 1 1;0 0 1 1;0 0 1 1;0 0 1 1;0 0 1 1"/></path><path fill="#000" d="M66 148a3 3 0 1 1 6 0 3 3 0 1 1-6 0"><animate attributeName="d" values="M 92,148 a 3,3 0 1,1 6,0 a 3,3 0 1,1 -6,0;M 92,148 a 3,3 0 1,1 6,0 a 3,3 0 1,1 -6,0;M 92,148 a 3,0.5 0 1,1 6,0 a 3,0.5 0 1,1 -6,0;M 92,148 a 3,0.5 0 1,1 6,0 a 3,0.5 0 1,1 -6,0;M 92,148 a 3,3 0 1,1 6,0 a 3,3 0 1,1 -6,0;M 92,148 a 3,3 0 1,1 6,0 a 3,3 0 1,1 -6,0" dur="10.7s" repeatCount="indefinite" calcMode="spline" keyTimes="0;0.69;0.7;0.98;0.99;1" keySplines="0 0 1 1;0 0 1 1;0 0 1 1;0 0 1 1;0 0 1 1"/></path><circle fill="url(#e)" cx="95" cy="148" r="9" stroke="#d3d3d3" stroke-width="2"/></svg><svg><path stroke="#d3d3d3" stroke-width="2" fill="none" stroke-linecap="round" stroke-dasharray="4 3" d="M99 157c0 43 11 33 15 27"/></svg></svg>
