<?xml version="1.0" encoding="UTF-8" standalone="no"?>
<!DOCTYPE svg PUBLIC "-//W3C//DTD SVG 20010904//EN"
              "http://www.w3.org/TR/2001/REC-SVG-20010904/DTD/svg10.dtd">

<svg xmlns="http://www.w3.org/2000/svg" viewBox="0 0 774 480" onclick="location.href='https://findsvoc.com';">
  <style> svg { cursor: pointer; } .animated{transform: translateZ(0);}</style>
<svg>
  <path id="fico" fill="#5a5376" d="M 481.00,193.00
           C 411.67,90.00 341.00,149.67 360.78,236.00
             390.00,351.00 477.33,305.33 494.33,271.00
             494.33,271.00 518.33,296.33 518.33,296.33
             420.62,393.79 290.00,329.00 292.00,220.00
             297.50,125.50 418.50,57.50 520.00,150.00
             520.00,150.00 485.92,190.47 481.00,193.00 Z
           M 646.42,106.68
           C 807.33,90.67 824.33,346.67 642.00,344.00
             483.00,326.67 508.33,114.67 646.42,106.68 Z
           M 596.00,224.00
           C 602.50,327.25 716.00,354.00 709.00,224.00
             697.75,120.00 593.25,101.50 596.00,224.00 Z
           M 253.00,161.25
           C 256.09,165.45 268.00,269.00 251.36,344.43
             251.36,344.43 206.18,344.36 206.18,344.36
             190.67,265.33 200.27,164.91 203.73,160.61
             206.64,156.91 249.91,157.04 253.00,161.25 Z
           M 117.09,184.00
           C 117.09,184.00 175.16,263.07 117.00,344.00
             117.00,344.00 48.55,344.00 48.55,344.00
             -8.92,257.63 48.55,184.00 48.55,184.00
             48.55,184.00 117.09,184.00 117.09,184.00 Z" />
  <path id="findSVOC" fill="#f9d37a" d="M 35.67,475.83
           C 25.72,475.83 23.69,476.59 23.67,465.83
             23.67,465.83 23.67,408.83 23.67,408.83
             24.67,384.33 44.08,385.78 51.67,385.83
             60.09,385.88 67.22,388.18 62.67,397.76
             57.06,394.54 42.51,392.54 37.42,397.71
             34.88,400.17 33.29,414.45 36.67,416.83
             38.52,418.06 62.67,417.83 62.67,417.83
             62.67,417.83 62.67,424.83 62.67,424.83
             62.67,424.83 35.67,425.83 35.67,425.83
             35.67,425.83 35.67,475.83 35.67,475.83 Z
           M 71.90,388.57
           C 82.22,383.65 86.03,396.74 77.62,399.96
             70.94,402.58 64.84,393.66 71.90,388.57 Z
           M 203.67,414.83
           C 203.67,414.83 203.54,391.62 204.27,390.14
             205.86,386.90 212.65,387.16 214.49,389.92
             214.49,389.92 213.94,469.19 213.94,469.19
             144.49,509.19 137.58,391.92 203.67,414.83 Z
           M 272.23,395.53
           C 275.34,397.10 281.51,402.39 277.07,405.99
             274.56,408.02 268.56,404.31 265.67,403.34
             240.12,395.01 225.22,417.38 247.67,425.81
             302.12,437.01 281.22,477.19 256.67,476.83
             237.22,476.83 226.49,474.47 225.33,464.87
             226.71,455.99 236.01,464.64 239.76,465.99
             277.76,476.47 274.31,444.28 264.00,442.43
             252.88,434.73 231.06,437.28 226.43,419.83
             225.82,417.51 221.76,381.92 272.23,395.53 Z
           M 394.85,391.92
           C 443.60,388.24 452.44,476.22 396.67,477.38
             343.22,478.65 341.76,395.56 394.85,391.92 Z
           M 500.23,395.53
           C 509.67,399.77 508.09,409.69 498.67,405.86
             434.67,381.01 439.40,492.28 501.65,463.44
             504.81,462.68 513.64,466.32 500.67,473.87
             421.22,503.38 424.12,366.47 500.23,395.53 Z
           M 319.40,466.28
           C 319.40,466.28 341.97,396.69 343.26,395.43
             344.43,394.29 350.31,390.47 353.40,397.01
             353.40,397.01 330.85,463.38 330.85,463.38
             326.67,475.38 325.58,476.10 318.67,475.81
             310.80,475.53 312.12,475.56 307.53,463.83
             307.53,463.83 284.12,396.83 284.12,396.83
             285.03,392.28 291.68,393.87 293.03,394.82
             295.90,396.83 319.40,466.28 319.40,466.28 Z
           M 392.67,401.12
           C 360.31,400.83 356.39,472.98 398.67,468.57
             434.85,461.92 432.49,401.01 392.67,401.12 Z
           M 105.67,475.83
           C 103.09,475.83 96.73,476.62 95.03,474.47
             93.61,472.66 94.67,429.83 94.67,429.83
             94.67,414.47 109.03,412.65 120.85,412.10
             136.02,412.48 147.03,417.74 147.94,427.56
             147.94,427.56 148.67,475.83 148.67,475.83
             145.96,475.83 140.70,476.68 138.67,474.65
             136.88,472.86 137.67,438.83 137.67,438.83
             137.53,425.90 132.49,420.65 120.76,420.61
             108.31,420.65 105.80,425.31 105.67,432.83
             105.67,432.83 105.67,475.83 105.67,475.83 Z
           M 70.67,412.83
           C 77.89,412.86 80.51,412.66 80.67,420.83
             80.67,420.83 80.67,475.83 80.67,475.83
             78.22,475.83 72.49,476.18 70.85,474.10
             69.06,471.83 70.67,412.83 70.67,412.83 Z
           M 203.40,465.74
           C 203.40,465.74 203.10,426.16 203.10,426.16
             160.85,399.92 153.76,483.01 203.40,465.74 Z" />
  <path id="f_beard" fill="white" d="M 49.00,133.00
           C 49.00,344.00 115.00,344.00 115.00,133.00
             115.00,133.00 49.00,133.00 49.00,133.00 Z" />
  <path id="f_face" fill="#ffcca9" d="M 49.00,133.00
           C 49.00,133.00 114.91,133.09 114.91,133.09
             115.27,161.27 105.82,175.45 105.82,175.45
             88.18,161.09 76.12,160.88 58.00,175.00
             58.00,175.00 48.75,161.25 49.00,133.00 Z
           M 95.09,184.00
           C 95.09,193.27 69.09,193.64 69.09,184.00
             68.91,168.18 95.09,168.73 95.09,184.00 Z" />
</svg>
<svg class="animated">
  <path id="hat" fill="#5a5376" d="M 159.91,134.55
           C 157.73,127.18 120.72,136.96 81.36,135.27
             42.73,132.76 14.03,129.36 4.50,134.75
             12.25,120.75 46.25,119.75 49.59,112.30
             49.95,17.20 206.25,-16.08 229.00,78.67
             220.64,45.39 115.09,14.91 114.73,112.91
             130.18,113.64 162.53,128.05 159.91,134.55 Z">
    <animate attributeName="d" values="M 159.91,134.55
           C 157.73,127.18 120.72,136.96 81.36,135.27
             42.73,132.76 14.03,129.36 4.50,134.75
             12.25,120.75 46.25,119.75 49.59,112.30
             49.95,17.20 206.25,-16.08 229.00,58.67
             220.64,45.39 115.09,14.91 114.73,112.91
             130.18,113.64 162.53,128.05 159.91,134.55 Z;
           M 159.91,134.55
           C 157.73,127.18 120.72,136.96 81.36,135.27
             42.73,132.76 14.03,129.36 4.50,134.75
             12.25,120.75 46.25,119.75 49.59,112.30
             49.95,17.20 206.25,-16.08 229.00,78.67
             220.64,45.39 115.09,14.91 114.73,112.91
             130.18,113.64 162.53,128.05 159.91,134.55 Z;
		   M 159.91,134.55
           C 157.73,127.18 120.72,136.96 81.36,135.27
             42.73,132.76 14.03,129.36 4.50,134.75
             12.25,120.75 46.25,119.75 49.59,112.30
             49.95,17.20 206.25,-16.08 229.00,58.67
             220.64,45.39 115.09,14.91 114.73,112.91
             130.18,113.64 162.53,128.05 159.91,134.55 Z"
		  dur="1s" repeatCount="indefinite" calcMode="spline"
		  keyTimes="0;0.5;1" keySplines="0.5 0 0.75 1;0.25 0.75 0.5 1"/>
  </path>
</svg>
<svg>
  <defs>
    <linearGradient id="hat_Grad" gradientTransform="rotate(15,.5,.5)">
	  <stop offset="0" stop-color="#312b4b" />
	  <stop offset="0.2" stop-color="#312b4b" />
	  <stop offset="0.63" stop-color="#5a5376" />
	  <stop offset="0.9" stop-color="#312b4b" />
	</linearGradient>

  </defs>
  <path id="hat_valley" fill="url(#hat_Grad)" d="M 114.27,113.18
           C 117.60,113.11 100.32,122.27 74.55,122.82
             74.77,123.12 105.87,117.95 104.55,116.18
             104.55,116.18 88.36,115.09 88.36,115.09
             88.88,114.56 112.02,115.79 114.27,113.18 Z
           M 147.27,22.36
           C 124.67,26.33 109.33,31.67 106.67,36.67
             106.67,36.67 127.25,35.25 127.25,35.25
             115.69,39.06 113.96,33.54 90.33,50.67
             80.46,61.42 81.33,62.00 75.33,83.33
             88.21,85.08 88.10,84.67 99.67,67.67
             90.27,87.98 93.29,87.62 75.67,90.00
             69.54,91.50 74.42,103.58 77.67,104.33
             77.80,104.91 92.50,109.09 91.69,105.44
             92.21,105.38 92.10,107.80 90.94,107.94
             91.10,108.56 51.78,115.03 50.25,112.50
             47.56,67.25 90.00,27.00 147.27,22.36 Z
           M 136.73,55.45
           C 136.22,59.20 119.24,56.51 119.64,53.64
             118.81,54.37 127.81,63.98 134.00,58.55
             134.00,58.55 136.73,55.45 136.73,55.45 Z
           M 125.82,66.91
           C 123.45,72.36 114.97,72.64 114.91,70.00
             114.75,70.36 121.15,76.72 122.55,73.64
             122.55,73.64 125.82,66.91 125.82,66.91 Z
           M 116.36,92.00
           C 115.27,95.27 105.11,96.76 104.36,96.18
             104.85,96.93 117.10,97.62 115.82,95.64
             115.82,95.64 116.36,92.00 116.36,92.00 Z
           M 4.48,134.78
           C 12.30,129.83 43.78,132.43 49.00,133.00
             49.00,133.00 49.00,139.00 49.00,139.00
             39.91,131.73 7.09,142.82 4.48,134.78 Z
           M 114.88,134.50
           C 114.88,134.50 115.06,140.19 115.06,140.19
             115.11,140.48 129.12,141.38 137.88,136.62
             144.00,133.25 158.76,136.50 159.81,134.75
             159.44,128.38 129.75,133.69 114.88,134.50 Z
           M 76.25,113.62
           C 76.25,113.62 49.88,113.38 49.88,113.38
             42.00,119.00 14.00,122.00 4.82,134.29
             7.78,130.83 36.28,131.40 38.35,132.09
             39.73,123.82 58.09,114.18 76.25,113.62 Z
           M 49.64,133.00
           C 60.00,133.91 92.18,137.55 114.36,134.36M 118.55,82.91
           C 118.48,85.99 109.61,85.43 109.64,84.00
             109.17,84.73 115.65,89.25 117.27,86.73
             117.27,86.73 118.55,82.91 118.55,82.91 Z" />
  <circle id="righteye" fill="black" cx="69" cy="148" r="3" stroke="none" stroke-width="3"/>			 
  <circle id="lefteye" fill="black" cx="95" cy="148" r="3" stroke="none" stroke-width="3"/>	
</svg>
<svg class="animated">
  <defs>
  	<linearGradient id="glass_Grad" gradientTransform="rotate(60,.5,.5)">
		<stop offset="0" stop-color="#ffffff77">
			<animate dur="2s" attributeName="offset" from="-0.3" to="1.0" repeatCount="indefinite"/>
		</stop>
		<stop offset="0.2" stop-color="white">
			<animate dur="2s" attributeName="offset" from="0" to="1.3" repeatCount="indefinite"/>
		</stop>
		<stop offset="0.3" stop-color="#ffffff77">
			<animate dur="2s" attributeName="offset" from="0.3" to="1.6" repeatCount="indefinite"/>
		</stop>
	</linearGradient>
  </defs>
  <circle id="glass" fill="url(#glass_Grad)" cx="95" cy="148" r="9" stroke="lightgray" stroke-width="2"/>
  <path id="glasslead" stroke="lightgray" stroke-width="2" fill="none" 
    stroke-linecap="round" stroke-dasharray="4 3" d="M 99,157 C 99,200 110,190 114,184"/>
  <circle id="i_head" fill="#5a5376" cx="228" r="21">
  <animate attributeName="cy" values="80; 130; 80" 
		  dur="1s" repeatCount="indefinite" calcMode="spline" fill="freeze"
		  keyTimes="0; 0.5; 1" keySplines="0.5 0 0.75 1; 0.25 0.75 0.5 1" />
  </circle>
</svg>
</svg>
