<svg xmlns="http://www.w3.org/2000/svg" viewBox="0 0 300 200"><path fill="#585174" d="M8 148h7s1.1-7 5.2-10.6c3.7-3.3 8.1-3.4 12.8-3.4v5c-5.4 1.9-6.6 3.6-8 9h8v6h-9v34H13v-21l1-13H8v-6Zm31-14h10v9H39v-9Zm54 46c-5.6 5-12.2 9-20 7.5C59 185 51 169 59.6 157a21.6 21.6 0 0 1 20.4-8.5c5.5 1 10.5 4.8 12.5 7.5 0 0-2.2 3.5-5.5 6-1.6-2.1-2.9-3.8-5-5.4-6.7-5.2-12.9-2.5-15.2 5.4-2.5 8.8 6.4 24.4 17.2 18.7 2.4-1.3 3.4-2.7 5-4.7l4 4Zm22-31.5c26.4-3.1 29.9 34.6 5 39-15.8 2.8-26.7-13.4-20.6-27.5 3-7.1 8.4-9.8 15.6-11.5ZM39 150h10v38H39v-38Zm74 4.6c-10.1 6-6 25.7 4 27.7 5 1 8.6-2.8 9.6-7.3 2.2-9.4-1.4-22.9-13.6-20.4Z"/><text x="40" y="200" font-size="80" lengthAdjust="spacingAndGlyphs" textLength="80" transform="rotate(-33)" fill="#585174">쌤</text><text x="190" y="185" fill="#585174" font-size="60" font-weight="bold" lengthAdjust="spacingAndGlyphs" textLength="100">note</text><path fill="#f44336" d="m181.7 161.7-3-14-19.4 38.3h-12c-6-55-73.3-82.3-73.3-82.3 42 10 79 28.8 79 72.3 14.3-31.7 36.5-45 36.5-45l-2.8 14c25.5-44.5 83.8-51 83.8-51s-53.2 14.3-88.8 67.7Z"/></svg>
