<svg xmlns="http://www.w3.org/2000/svg" viewBox="0 50 330 150"><style>@font-face{font-family:&quot;Otomanopee&quot;;src:url(https://static.findsvoc.com/font/OtomanopeeOne-Regular-min.ttf)format(&quot;truetype&quot;);font-weight:400;font-style:normal}@font-face{font-family:&quot;Tenada&quot;;src:url(https://static.findsvoc.com/font/Tenada-min.ttf)format(&quot;truetype&quot;);font-weight:400;font-style:normal}</style><text y="185" fill="#585174" font-family="Otomanopee" font-size="70">fico</text><path fill="#f44336" d="M155 149c12.8-8.1 21.2-21 31-32 19.4-21.5 29.7-33 54-49.5a147 147 0 0 1 25-14c4-1.8 7.8-3.9 12-2.5-13.7 7.1-23.6 8.7-37 19h5l-4 3c5.2-2.8 12.5-4.8 14-11l2 1v-2c12.3-1.8 17-10.3 36-10 2.7 0 3.5 0 6 1l-5 2 4 1c-11.5 2.7-21.9 11-32 16.9l-20 11.9-13 10-8.7 5.6-5.3 5.5c-9.2 9-16.3 19-24.2 29.1-4.8 6-9.5 12.4-13.5 19-5 8.4-7.1 14.1-15 20.3-3.5 2.8-11 7.7-15.3 7.7l-1 4c-1.2-.5-1.7-1-3.2-1-1.5 0-16.7 6.2-14.8-5 1.4 3.3 1.4 4.2 5 5l-4-7 6 6-10.6-24-5.9-15-7.5-18-1.6 3.1L120 143l-3-1-1 3c-2.2-7.7-9-17-8.6-25 .2-6.2 11-12.4 16.6-12.8 2.7-.1 3.7.6 6 1.8l-1-3c4.8 1.6 5 3.6 7 8-1.3 3.8 1.6 7.2 3.7 10.4 4.1 6.4 10 20.7 14.3 24.6l-9-19c-2.3-3.7-6.2-7.5-6-12 6.1 9.8 13.9 19.4 16 31Zm126-89h-1l1 1v-1Zm-2 1h-1l1 1v-1Zm-11 6a68.4 68.4 0 0 0-27 18l12-7.8L268 67Zm-9 10h1l-1 1v-1Zm-2 1h1l-1 1v-1Zm-3 2h1l-1 1v-1Zm-16 7-4 3 4-3Zm-15 1-4 3 4-3Zm11 2c-3.6 1.8-4.3 2.4-6 6l6-6Zm-15 1h-1l1 1v-1Zm-1 1h-1l1 1v-1Zm-1 1a17 17 0 0 0-9 8l9-8Zm11 3h-1l1 1v-1Zm-20 5h-1l1 1v-1Zm-77 8h-1l1 1v-1Zm0 33h-3c.7 8 5.7 17.8 9.3 25 2.2 4.4 1.8 6.4 6.7 8l-13-33Zm-14 5h1l-1 1v-1Zm2 18h1l-1 1v-1Zm6 1-2 4 2-4Zm-5 1h1l-1 1v-1Zm9 0h1l-1 1v-1Zm1 4c2 2.3 2.2 2.2 1 5l-1-5Zm24 7h-1l1 1v-1Zm-15 6h-1l1 1v-1Z"/><text x="55" y="190" fill="#585174" font-family="Tenada" font-size="70" textLength="70" transform="rotate(-33)">쌤</text><text x="170" y="185" fill="#585174" font-family="Otomanopee" font-size="70">note</text></svg>
