<svg xmlns="http://www.w3.org/2000/svg" viewBox="0 50 330 150"><style>@font-face{font-family:&quot;Otomanopee&quot;;src:url(https://static.findsvoc.com/font/OtomanopeeOne-Regular-min.ttf)format(&quot;truetype&quot;);font-weight:400;font-style:normal}@font-face{font-family:&quot;OTEnjoystoriesBA&quot;;src:url(https://cdn.jsdelivr.net/gh/projectnoonnu/noonfonts_two@1.0/OTEnjoystoriesBA.woff)format(&quot;woff&quot;);font-weight:400;font-style:normal}</style><text y="185" fill="#585174" font-family="Otomanopee" font-size="70">fico</text><path fill="#a91461" d="M153 152.1c10.9-6.9 18-17.8 26.4-27.1 16.4-18.3 25.2-28 45.8-42.1 6.8-4.6 13.8-8.8 21.3-12 3.3-1.4 6.6-3.2 10.2-2-11.6 6-20 7.4-31.4 16.1h4.2l-3.4 2.5c4.4-2.3 10.6-4 11.9-9.3l1.7.8v-1.7c10.5-1.5 14.4-8.7 30.6-8.5 2.3 0 3 0 5.1.9l-4.3 1.7 3.4.8c-9.8 2.4-18.5 9.4-27.2 14.4l-17 10.1-11 8.6-7.4 4.7-4.5 4.7c-7.8 7.6-13.9 16.2-20.6 24.7-4 5.1-8 10.5-11.4 16.1-4.3 7.2-6.1 12-12.8 17.3-3 2.4-9.3 6.5-13 6.5l-.8 3.4c-1-.4-1.5-.8-2.8-.8-1.3 0-14.1 5.3-12.6-4.3 1.2 2.9 1.2 3.6 4.3 4.3l-3.4-6 5.1 5.1-9-20.3-5-12.8-6.4-15.3-1.4 2.6 5.7 11.9-2.6-.9-.9 2.6c-1.8-6.6-7.6-14.5-7.3-21.3.2-5.3 9.4-10.6 14.1-10.8 2.4-.2 3.2.4 5.2 1.4l-.9-2.5c4 1.3 4.3 3 6 6.8-1.1 3.3 1.3 6.1 3 8.9 3.6 5.4 8.6 17.5 12.3 20.8l-7.8-16.1c-1.9-3.1-5.2-6.4-5-10.2 5.2 8.3 11.8 16.5 13.6 26.3Zm107.1-75.6h-.9l.9.8v-.8Zm-1.7.8h-.9l.9.9v-.9Zm-9.3 5.1a58.2 58.2 0 0 0-23 15.3l10.2-6.5 12.7-8.8Zm-7.7 8.5h.8l-.8.9V91Zm-1.7.9h.8l-.8.8v-.8Zm-2.5 1.7h.8l-.8.8v-.8Zm-13.7 6-3.3 2.5 3.3-2.5Zm-12.7.8-3.4 2.5 3.4-2.5Zm9.3 1.7c-3 1.5-3.6 2-5 5.1l5-5.1Zm-12.7.8h-.9l.9.9v-.9Zm-.9.9h-.8l.8.8v-.8Zm-.8.8a14.4 14.4 0 0 0-7.7 6.8l7.7-6.8Zm9.3 2.6h-.8l.8.9v-.9Zm-17 4.3h-.8l.8.8v-.9Zm-65.4 6.7h-.8l.8.9v-.9Zm0 28.1h-2.5c.6 6.8 4.8 15 7.9 21.3 1.9 3.7 1.5 5.4 5.6 6.8l-11-28.1Zm-11.9 4.3h.8l-.8.8v-.9Zm1.7 15.3h.8l-.8.8v-.8Zm5.1.8-1.7 3.4 1.7-3.4Zm-4.3.8h.9l-.8.9v-.9Zm7.7 0h.8l-.8.9v-.9Zm.8 3.4c1.7 2 2 2 .9 4.3l-.8-4.3Zm20.5 6h-.9l.8.8v-.8Zm-12.8 5.1h-.8l.8.8v-.8Z"/><text x="55" y="190" fill="#002060" font-family="OTEnjoystoriesBA" font-size="70" textLength="70" transform="rotate(-33)">쌤</text><text x="170" y="185" fill="#585174" font-family="Otomanopee" font-size="70">note</text></svg>
