<svg xmlns="http://www.w3.org/2000/svg" xmlns:xlink="http://www.w3.org/1999/xlink" viewBox="0 50 330 150">
<style>
@font-face {
	font-family:'Otomanopee';
	src:url(https://static.findsvoc.com/font/OtomanopeeOne-Regular-min.ttf) format('truetype');
	font-weight:400;
	font-style:normal;
}
@font-face {
    font-family: 'OTEnjoystoriesBA';
    src: url('https://cdn.jsdelivr.net/gh/projectnoonnu/noonfonts_two@1.0/OTEnjoystoriesBA.woff') format('woff');
    font-weight: normal;
    font-style: normal;
}
</style>
<text x="0" y="185" font-family="Otomanopee" lengthAdjust="spacing" font-size="70" fill="#585174">fico</text>
  <path fill="#DC3545" transform="translate(5 50)"   d="M 104.15,67.37
           C 103.49,74.72 115.31,94.89 115.31,94.89
             115.31,94.89 113.81,89.39 118.33,91.55
             118.33,91.55 106.18,75.26 111.68,76.02
             113.94,77.02 140.06,131.02 138.81,131.64
             135.44,130.64 120.44,98.26 120.51,100.09
             120.51,100.09 135.94,133.14 136.88,133.19
             132.94,132.76 129.81,126.39 129.81,126.39
             129.81,126.39 130.44,136.26 139.97,135.00
             139.97,135.00 150.70,131.19 150.70,131.19
             150.70,131.19 153.31,129.26 153.31,129.26
             153.31,129.26 153.81,130.89 153.81,130.89
             153.81,130.89 157.81,127.39 157.94,127.26
             158.06,127.14 158.06,123.64 158.06,123.64
             158.06,123.64 182.94,81.26 228.81,57.14
             228.81,57.14 177.68,94.02 176.68,101.76
             180.31,97.14 232.56,52.26 246.31,50.26
             243.44,50.02 241.31,49.64 241.31,49.64
             241.31,49.64 246.56,49.76 245.68,46.39
             245.68,46.39 225.44,45.26 210.44,58.26
             210.44,58.26 213.81,52.89 213.81,52.89
             213.81,52.89 200.31,62.89 200.31,62.89
             200.31,62.89 204.18,62.26 204.18,62.26
             204.18,62.26 191.56,73.26 189.94,72.64
             188.31,72.02 193.56,69.14 194.31,66.89
             194.31,66.89 191.81,68.39 189.06,69.26
             192.44,63.39 217.31,50.14 226.81,45.64
             209.06,43.64 167.56,86.26 153.18,99.64
             150.81,94.02 142.44,79.39 133.18,69.26
             149.18,94.52 153.18,100.52 149.44,102.02
             149.44,102.02 130.06,68.39 130.06,68.39
             130.06,68.39 129.44,66.52 132.31,67.14
             132.31,67.14 127.06,58.26 124.31,59.52
             124.31,59.52 125.94,62.89 125.94,62.89
             119.81,56.89 106.44,61.76 104.15,67.37 Z
           M 128.06,91.52
           C 124.31,92.39 131.26,102.70 135.81,111.64
             138.56,118.02 140.68,126.64 143.94,124.52
             145.94,123.02 130.31,92.14 128.06,91.52 Z
           M 155.56,107.14
           C 155.56,107.14 173.06,89.14 173.44,89.14
             173.81,89.14 157.56,108.64 155.56,107.14 Z"/>
<text x="55" y="190" textLength="70" font-size="70" font-family="OTEnjoystoriesBA" fill="#002060" transform="rotate(-33)">쌤</text>
<text x="170" y="185" font-family="Otomanopee" lengthAdjust="spacing" font-size="70" fill="#585174">note</text>
</svg>