<?xml version="1.0" encoding="UTF-8"?>
<svg version="1.1" viewBox="0 100 1e3 650" xmlns="http://www.w3.org/2000/svg"><style>.slogan{font-size:30px;font-weight:600;font-family:cursive;transform:skew(-1deg,-15deg)}.animated{transform:translateZ(0)}</style><defs><radialGradient id="b" cx="1" cy="1" r="7" fx=".8" fy=".1"><stop stop-color="#346" offset="0"/><stop stop-color="#003" offset=".15"/></radialGradient><linearGradient id="d" gradientTransform="rotate(50)"><stop offset=".5"/><stop stop-color="gray" offset=".9"/></linearGradient><marker id="f" markerHeight="5" markerWidth="5" refX="5" refY="5" viewBox="0 0 10 10"><circle cx="5" cy="5" r="5"/></marker></defs><path id="g" d="M0 484h1000v266H0z" fill="#303"/><path id="h" d="M478 100v384l522 186V100z" fill="#204"/><path id="i" d="M0 100v570l479-186V100z" fill="#408"/><path id="j" d="m190 170v80l190-50v-80z" fill="#88a" stroke="#333" stroke-width="2"/><text class="slogan" x="210" y="255">find</text><text class="slogan font-red" x="250" y="290" fill="#813">S V O C</text><path id="k" d="M35.33 154c-60 15.33-70 136-.33 122s60.33-137.33.33-122Z" fill="#447" stroke="#420" stroke-width="5"/><g fill="none"><path id="l" d="M36.75 161.5 77 203.25l-17.5-37.5 10.5 18-32.25 81.75L61 250l12-22-60.25 37.75L12 175" marker-end="url(#f)" marker-mid="url(#f)" marker-start="url(#f)"/><path d="m36 216.2 28.5 32.5" stroke="#000" stroke-width="2"/><path d="m36 216.2 24.67-19.58" stroke="#000" stroke-width="3"/></g><path id="m" d="M5.67 345 149 301.33l.33 28L6.67 373l-1-28Z" fill="#310" stroke="#200"/><path id="n" d="m65.33 299.3c40.67 16 65.34 82 38 108.7 0 0 6.67 38-8.66 98-2.59 7.22 0.86-52.13-9.34-64.67-2.28 4-8.5 13.92-16.66 18-28 14-44-34.66-35.34-65.33 8.67-30.67-8.66-110.7 32-94.67z" fill="#2a2346"/><circle id="o" cx="94" cy="526" r="15" fill="#2a2346"/><path id="p" d="M92.33 471.33c-1.33-19.66-5.66-38-29.66-66.66-10.64.15-18.85-45.74-8.67-46.34-5.01.27 4.8 42.02 11.33 41.67 5.67 1.33 2.34-17 7.34-19.33L70.33 404c.62-3.64 13-11 13-11-6.66 4-10.16 15.95-5.66 16.67 8.68.3 18.47 61.8 14.66 61.66Z" fill="#00000099"/><path id="q" d="m139.3 321.7c23.55 4.08 23.67 2.08 24-8.34m-54 18c22.85 4.85 22.67 5.22 22.67-10.66m-109.7 35.66c21.67 4.94 21.67 4.4 22-10.66" fill="none" stroke="url(#d)" stroke-linecap="round" stroke-width="2"/><path id="r" d="M692 82v241l260 75V157Z" fill="#403"/><path id="s" d="m702 92 115 33v228.17L702 320z" fill="#003" stroke="#124" stroke-width="2"/><path id="t" d="m754.5 330 29-26.5 31-7m-1 43.75-66.88-70.63m67.13 48.13L794 278.5l-8.88-55.75m-39 75.87 18.76-24.37m9.87-26.75 24-3.75" fill="none" stroke="#dd77" stroke-width="8"/><path id="u" d="m827 128 115 32v230l-115-34z" fill="url(#b)"/><path id="v" d="m680 653c-14.17 5.5-31.5 35.17-3 49.5 0 0 115 66.83 162.7 66.83 47.66 0 159.8-87.16 159.8-87.16 2.93-1.05 4.33-16-1-16.67 7-2 9.06-40.62 0.33-38 6.62-1.86 6.55-8.33 1.35-12.23 0 0-118.5-69.6-174.5-69.6s-145.7 53.33-145.7 53.33c-6.5 7.83-19.87 31.4 0 54z" fill="#325"/><path id="w" d="m713.8 643 43.5 15.25c-4.91-8-3-22.75 33-40.75l-39-14.12c-38.25 18.12-40.77 31.35-37.5 39.62z" fill="#243" stroke="#888" stroke-dasharray=".5 3" stroke-width="3"/><path d="m856.8 703.6 69.37-30.62c6.38 9.62 2.79 21.91-0.85 27l-71.45 36.55c4.73-4.73 10.8-18.17 2.93-32.93z" fill="#423" stroke="#999" stroke-dasharray=".5 3" stroke-width="3"/><path id="x" d="m1000.67 627.67-134.09 60.5c-6.33 2.91-11.75 5.5-21.25 1.5l-71.75-25c-4.5-5.13-6.12-7.38-4.25-13 0 0-2.75 4-1.12 10.4l-75.88-27.15c-1.5-1.88 2.75-7.75 2.75-7.75s-2.62 4-4.87 5.87c-1.56.69-5.81-8.56-5.81-8.56s4.25 8.31 4.06 11.56c-.81 1.75-7.13 5.63-7.13 5.63s8.19-5.94 11.69-4.75c0 0 41.69 13 40.81 18-3 5.87 1.25 11.25 1.25 11.25s-2.37-11.75 1.88-12.25 62.25 19.56 56.75 24.12c-2.88 1.63-3.13 4.63-3.13 4.63s2.13-3.63 6-3c-2.75 2.25.25 8 .25 8s-.12-8.13 3.75-8c3.88.12 39 14.5 39 14.5 18.48 4.59 19.05 1.68 33.94-2.14 0 0 42.9-20.73 48.56-20.86 8.89-.59 8.25 11 8.25 11s2.82-12.14-3.54-14.5c-6.37-2.37 75.54-35.67 75.54-35.67l-1.66-4.33Zm-1.97 37.6-33.58 18.52c3.27-4.37 3.27-13.27 3.27-13.27s-2.54 11.81-10 16.43l-59.83 31.8c3.18-3.94 3.29-13.69 3.29-13.69s-3.09 12.34-9.76 17.55l-43.39 23.33h-19.67l-77.88-37.99c-4.74-2.84-6.24-12.84-6.24-12.84s-.81 8.1 1.37 10.62l-64.22-31.47c-1.73-1.39-2.03-7.4-2.03-7.4s0 5.53-1.25 7.12c-1.67.44-6.75-4-6.75-4s2.98 4.11 5.17 5.92c1.22 1-4.42 4.08-4.42 4.08s4.48-2.75 8.5-1.37c9.8 3.36 25 12.87 25 12.87-7.2 4.12-2.87 8.75-2.87 8.75s.62-8.75 8.07-6.93l67.3 33.68c-5 2.63-3.5 8.5-3.5 8.5s.5-9.37 13-4l37.75 17.79 25.67 1 78.28-43.18c5.18.64 4.93 4.77 4.93 4.77s.75-4.75-1.38-6.25l66.83-37.34-1.66-3Zm-316.45-11.69c1.47.06 72.66 31.6 72.66 31.6-1.44-1.92 1.11-10.49 2.59-9.47-.14 1.56-1.88 9.5 1.46 11.38l67.37 30.24c2.24 1.8 5-7 5-7s-2.6 7.09-1 8.12c1.61 1.03 5.67-.66 5.67-.66s-5 2.09-5.67 3.54c-1.06 2.37-1.33 10.34-1.33 10.34s-.73-7.06-2.45-8.25c-1.46-4.63-34.14-15.35-34.14-15.35-5.03-.86-5.4 6.21-4.91 6.51-3.51-.9-.31-8.68.38-8.75l-56.13-26.37c-2.87-.38-4 4.5-2.63 8.12-3.25-.98-2.04-9.01.05-8.97 0 0-46.52-21.78-47.67-22.15-3.12-1-4.75-.75-4.75-.75.16-1.05 2.5-2.25 5.5-2.13Z" fill="#00000077"/><path d="m262.4 516.9-1.11 162.6-20.25 10.25 0.66-167.8z" fill="#530"/><path d="m602.5 411.5 21.5-10-.5 146-21.5 10z" fill="#530"/><path id="y" d="m602.3 557-101-41.63 3.34-130.7 98.33 28.66z" fill="#321"/><path id="z" d="m241.33 528.67-105-45.34 2.01 142.88L241 689z" fill="#321"/><path id="aa" d="m641.1 399-405.4 147.9 0.4-16.88 405.3-147.1z" fill="#421"/><path id="ab" d="m106.5 488.5 129.2 58.5 0.34-16.91-129.9-60.97z" fill="#310"/><path id="ac" d="m236.3 531 405.1-148.1-162.7-46.9-372.7 132.8z" fill="#210"/><path id="ad" d="m472.9 400.6c67.51 20.14 129.9-25.34 82.29-39.55-47.62-14.2-149.8 19.41-82.29 39.55z" fill="#ae0014"/><path id="ae" d="m508.3 381.9 76.05-112.4-90.63-66.61" fill="none" stroke="#be0024" stroke-linecap="round" stroke-linejoin="round" stroke-width="20"/><path id="af" d="m460.4 184.1c7.29-25.5 41.4-19.26 35.41 6.24l-4.16 22.64c11.72 1.82 23.95 25.24 23.95 25.24l-97.91-15.61s22.13-16.4 37.24-15.62l5.47-22.89z" fill="#dc143c"/><path d="m424 442-49-20.33-109.82 42.47c-6.72 2.6-2.09 6.95-2.09 6.95s20.12 11.59 33.84 18.4c4.27 2.12 11.57.39 11.57.39L424 442Z" fill="silver" stroke="gray"/><path d="m294.88 485.25 5.74 2.63 92.63-35.76-5.87-2.24-92.5 35.37Zm-8.76-4.5 4.76 2.5 94.24-35.5-10.87-2.87-88.13 35.87Zm-3.12-2.5-4.75-2.13 88-35.87s4.63 2.75 5.13 3.13c.5.37-88.38 34.87-88.38 34.87Zm-6.62-3.5-4.76-2.75L359 437.12l5.12 2.76-87.74 34.87Zm-7.76-4.63-5.12-2.62 88.25-34 5.13 2.62-88.26 34Z" fill="#fff" stroke="gray" stroke-width=".5"/><path d="m271.38 463.5 7.24 4.25-2 1 6.5 4.25 3.38-.88 6.12 3.13 4.38-.13 8 4.13-3.88 1.87 8.76 5 7.74-2.62-8.74-5.12 1.74-.63-7.12-5.13-4.38 1.38-5.87-5-4 1.25-6-4.37 1.63-.63-6.88-5 7.12-2.25 6 4.62-.87 1 5.87 4.13 4.63-1.37 5.13 3.74 4-1.12 16.5 11.25m-1.26-8.37-7.24-5.5-4.63 1.5-5.5-4.5-3.87 1.87-6-4.37 2-1.5-6.63-4.88 8.87-3.12 6.5 4.74-3.24 1.63 4.5 4.75 6-2.62 4.87 5.12 4-1.62 7.75 5.37 7.38-2.13-7.88-5.87-4.25 1.37-5.13-4.74-4 1.5-5.37-4.63 3.75-2-5.88-3.87 6.88-2.88 5.38 4.5-2.38 1.38 4.75 4.37 4.5-1.63 5.25 4.63 4.75-1.25 5.5 6.62 7.25-2-5.5-7.5-4 1.5-5.25-5.24-4.37 2.37-6.5-4.87 3.74-1.13-5.62-4.63 7.25-2.74s4.75 4.5 4.87 4.5c.13 0-2.12 1.37-2.12 1.37l6 3.87 5.12-1.87 4.88 4.37-1.62-5.62-6.88-3.88 2.75-1.24-6.5-3.5 5.87-2.38 6.5 3.38" fill="none" stroke="silver" stroke-width="2"/><path id="ag" class="animated" d="m898.9 585.6c-28.88 28.5-2.5 38.76-4.13 49.63-2.11 21.66-59.42 12.78-58.13-0.5" fill="none" stroke="#bebece" stroke-linecap="round" stroke-width="13"><animate attributeName="d" begin="1.5s" dur="2s" keyTimes="0;.70;.9;1" repeatCount="indefinite" values="M 898.88,585.62 C 870.00,614.12 896.38,624.38 894.75,635.25 892.64,656.91 835.33,648.03 836.62,634.75; M 898.88,585.62 C 870.00,614.12 896.38,624.38 894.75,635.25 892.64,656.91 835.33,648.03 836.62,634.75; M 898.88,585.62 C 870.00,614.12 896.38,624.38 894.75,635.25 892.64,656.91 840.00,648.00 850.73,623.27; M 898.88,585.62 C 870.00,614.12 896.38,624.38 894.75,635.25 892.64,656.91 835.33,648.03 836.62,634.75"/></path><path id="ah" d="M848 568c-1 12-5 10-14.33 9.33-10.67-6-21.34-15-32.67-14.33-12.67-.67-11.67-23.33 6.33-16.33.03-.41 27.88 9.15 27.67 12.33-3.18-29.36 21.36-32.09 32.27-13.36" fill="#ccd" stroke="#000"/><path id="ai" d="M953.59 488.73c3.74 21.18 7.77 50.18 7.41 56.94-2.27 41.06-10.45 57.06-57.75 57.08C882.92 604.75 846 582 848 568c1.09-13.64.73-27.82 27-48.75-5.12-.3.91-21.89 20.5-39s53.86-19.89 58.09 8.48Z" fill="#ccd"/><path id="aj" d="m874.3 517.3-29.66 29.34 71.66 30 28-35.67z" fill="#87ceeb" stroke="#000" stroke-linejoin="round" stroke-width="3.5"/><path class="animated" d="m916.2 558.9c7.19 2.21 0.91 6.36-5.09 4.73-6-1.64-2.09-6.94 5.09-4.73z" fill="#0ff"><animate attributeName="fill" begin=".113s" calcMode="discrete" dur=".3s" keyTimes="0;.125;1" repeatCount="indefinite" values="white;cyan;white"/></path><path d="m932.7 541.6c7.18 2.21 0.91 6.36-5.09 4.72-6-1.63-2.1-6.94 5.09-4.72z" fill="#f0f"/><path class="animated" d="m925.4 550.4c7.19 2.22 0.91 6.37-5.09 4.73s-2.09-6.94 5.09-4.73z" fill="#ff0"><animate attributeName="fill" begin=".075s" calcMode="discrete" dur=".3s" keyTimes="0;.125;1" repeatCount="indefinite" values="white;yellow;white"/></path><path class="animated" d="m908.9 549.1c7.18 2.21 0.91 6.36-5.09 4.73-6-1.64-2.1-6.94 5.09-4.73z" fill="red"><animate attributeName="fill" begin=".038s" calcMode="discrete" dur=".3s" keyTimes="0;.125;1" repeatCount="indefinite" values="white;red;white"/></path><path d="m917.1 541.3c7.19 2.21 0.91 6.37-5.09 4.73s-2.09-6.94 5.09-4.73z" fill="#00f"/><path class="animated" d="m890.9 549.1c7.18 2.21 0.91 6.36-5.09 4.73-6-1.64-2.1-6.94 5.09-4.73z" fill="green"><animate attributeName="fill" begin=".188s" calcMode="discrete" dur=".3s" keyTimes="0;.125;1" repeatCount="indefinite" values="white;green;white"/></path><path class="animated" d="m907.6 533.1c7.18 2.21 0.91 6.36-5.09 4.73-6-1.64-2.1-6.94 5.09-4.73z"><animate attributeName="fill" calcMode="discrete" dur=".3s" keyTimes="0;.125;1" repeatCount="indefinite" values="white;cyan;white"/></path><path class="animated" d="m899.4 540.4c7.19 2.22 0.91 6.37-5.09 4.73s-2.09-6.94 5.09-4.73z" fill="#f0f"><animate attributeName="fill" begin=".15s" calcMode="discrete" dur=".3s" keyTimes="0;.125;1" repeatCount="indefinite" values="white;magenta;white"/></path><path d="m890.9 532.2c7.18 2.21 0.91 6.37-5.09 4.73s-2.1-6.94 5.09-4.73z" fill="#ff0"/><path class="animated" d="m882.4 539.4c7.19 2.22 0.91 6.37-5.09 4.73-6-1.63-2.09-6.94 5.09-4.73z" fill="red"><animate attributeName="fill" begin=".225s" calcMode="discrete" dur=".3s" keyTimes="0;.125;1" repeatCount="indefinite" values="white;red;white"/></path><path d="m866.7 539.6c7.18 2.21 0.91 6.36-5.09 4.72-6-1.63-2.1-6.94 5.09-4.72z" fill="#00f"/><path d="m882.2 525.3c7.19 2.21 0.91 6.37-5.09 4.73s-2.09-6.94 5.09-4.73z" fill="green"/><path class="animated" d="m874.7 531.8c7.18 2.21 0.91 6.36-5.09 4.73-6-1.64-2.1-6.94 5.09-4.73z" fill="#0ff"><animate attributeName="fill" begin=".075s" calcMode="discrete" dur="1s" keyTimes="0;.125;1" repeatCount="indefinite" values="white;cyan;white"/></path><path id="ak" class="animated" d="M910.82 477c-13.38-5.88-41.94 13.88-34.2 39 1 3.25 5.64 8.95 10.76 9.25 0 0 8.93 5.93 12 6.75 2.62 6.12 12.12 6.62 6.12-2.5-1.88-3.12-11.62-9.75-11.62-9.75m59.74-31.92c3.63 11.35 13.13 50.92 7.38 57.84 1.06.33-21.91 3.63-25.82 6.6-6.64 10.94-16.09 7.9-9.73-5.54 6.19-5.91 21.99-13.42 21.99-13.42" fill="#ccd" stroke="#000"><animate attributeName="d" dur=".3s" keyTimes="0;.125;.25;.375;.5;.625;.75;.875;1" repeatCount="indefinite" values="M 910.82,477.00 C 897.44,471.12 868.88,490.88 876.62,516.00 877.62,519.25 882.26,524.95 887.38,525.25 887.38,525.25 896.31,531.18 899.38,532.00 902.00,538.12 911.50,538.62 905.50,529.50 903.62,526.38 893.88,519.75 893.88,519.75M 953.62,487.83 C 957.25,499.18 966.75,538.75 961.00,545.67 962.06,546.00 939.09,549.30 935.18,552.27 928.54,563.21 919.09,560.17 925.45,546.73 931.64,540.82 947.44,533.31 947.44,533.31;M 910.82,477.00 C 897.44,471.12 880.50,471.25 863.00,513.00 862.25,516.25 864.21,523.70 869.33,524.00 869.33,524.00 881.62,523.06 884.69,523.88 889.12,528.75 894.44,530.25 892.50,521.00 890.62,517.88 876.25,514.62 876.25,514.62M 953.62,487.83 C 957.25,499.18 959.38,536.62 940.88,541.62 941.93,541.95 919.66,545.53 915.75,548.50 907.75,558.50 897.00,548.50 909.62,541.62 915.81,535.71 931.50,530.25 931.50,530.25;M 910.82,477.00 C 897.44,471.12 885.75,472.75 865.25,506.88 864.50,510.12 860.88,510.62 863.25,520.12 863.25,520.12 866.81,528.68 869.88,529.50 864.62,535.50 878.06,538.38 876.12,529.12 872.12,513.50 879.50,510.00 879.50,510.00M 953.62,487.83 C 957.25,499.18 966.75,538.75 961.00,545.67 962.06,546.00 939.09,549.30 935.18,552.27 928.54,563.21 919.09,560.17 925.45,546.73 931.64,540.82 947.44,533.31 947.44,533.31;M 910.82,477.00 C 897.44,471.12 880.50,471.25 863.00,513.00 862.25,516.25 864.21,523.70 869.33,524.00 869.33,524.00 881.62,523.06 884.69,523.88 889.12,528.75 894.44,530.25 892.50,521.00 890.62,517.88 876.25,514.62 876.25,514.62M 953.62,487.83 C 957.25,499.18 948.25,528.83 942.50,535.75 943.56,536.08 924.79,554.28 920.88,557.25 919.00,564.25 906.26,566.69 912.62,553.25 918.81,547.34 926.00,531.00 926.00,531.00;M 910.82,477.00 C 897.44,471.12 864.00,491.12 875.75,523.75 875.00,527.00 877.01,532.95 882.12,533.25 882.12,533.25 888.06,539.55 891.12,540.38 895.55,545.24 905.12,543.88 898.38,536.88 889.25,531.38 885.38,519.75 885.38,519.75M 953.62,487.83 C 957.25,499.18 966.75,538.75 961.00,545.67 962.06,546.00 939.09,549.30 935.18,552.27 928.54,563.21 919.09,560.17 925.45,546.73 931.64,540.82 947.44,533.31 947.44,533.31;M 910.82,477.00 C 897.44,471.12 880.50,471.25 863.00,513.00 862.25,516.25 864.21,523.70 869.33,524.00 869.33,524.00 881.62,523.06 884.69,523.88 889.12,528.75 894.44,530.25 892.50,521.00 890.62,517.88 876.25,514.62 876.25,514.62M 955.25,501.25 C 958.88,512.59 941.12,531.75 931.62,533.25 932.68,533.58 909.62,537.88 897.25,549.75 890.61,560.69 882.75,547.00 893.75,544.75 906.38,529.38 914.50,525.50 914.50,525.50;M 910.82,477.00 C 897.44,471.12 873.62,495.00 871.62,511.25 870.88,514.50 867.38,518.00 871.62,525.38 871.62,525.38 874.88,533.38 876.12,538.25 875.50,546.38 884.94,545.88 883.00,536.62 881.12,533.50 880.50,516.62 880.50,516.62M 953.62,487.83 C 957.25,499.18 966.75,538.75 961.00,545.67 962.06,546.00 939.09,549.30 935.18,552.27 928.54,563.21 919.09,560.17 925.45,546.73 931.64,540.82 947.44,533.31 947.44,533.31;M 910.82,477.00 C 897.44,471.12 880.50,471.25 863.00,513.00 862.25,516.25 864.21,523.70 869.33,524.00 869.33,524.00 881.62,523.06 884.69,523.88 889.12,528.75 894.44,530.25 892.50,521.00 890.62,517.88 876.25,514.62 876.25,514.62M 953.62,487.83 C 957.25,499.18 965.00,536.95 959.25,543.88 960.31,544.20 933.54,547.78 929.62,550.75 922.50,556.00 913.62,551.25 924.25,545.12 928.00,540.38 946.62,531.25 946.62,531.25;M 910.82,477.00 C 897.44,471.12 868.88,490.88 876.62,516.00 877.62,519.25 882.26,524.95 887.38,525.25 887.38,525.25 896.31,531.18 899.38,532.00 902.00,538.12 911.50,538.62 905.50,529.50 903.62,526.38 893.88,519.75 893.88,519.75M 953.62,487.83 C 957.25,499.18 966.75,538.75 961.00,545.67 962.06,546.00 939.09,549.30 935.18,552.27 928.54,563.21 919.09,560.17 925.45,546.73 931.64,540.82 947.44,533.31 947.44,533.31"/></path><path id="al" d="M934 576.18s14.18 6 11.25 16.32c-2.52 7.32-12.43 7.77-16.92 8.17 3.4.24 19.67 6.58 26.67 11.66 8.65 9.22-4.85 15.84-10.33 10-5.17-4.58-32.03-12.18-38-7-6.17-2.08-5.42-6.83-3.42-12.58" fill="#ccd" stroke="#000"/><path id="am" d="M795.25 558.44c.23.63 3.58 2.74 2.81.62-.77-2.11-3.04-1.25-2.81-.62Zm-.96-4.04c-.07-1.4 2.73-1.3 3.33.85.61 2.15-3.26.55-3.33-.85Zm.15-3.52c.15-1.29 3.64-.79 3.37.93-.27 1.72-3.52.35-3.37-.93Zm2.18-2.5c.5-1.39 4.6.23 3.5 1.5-1.09 1.26-3.99-.12-3.5-1.5Zm4.42 5.15c-2.11-.46-2.71 2.31-1 3.87.12 2.56.16 3.33 1.49 3.4 1.34.07 3.11-7.62 1.96-8.36-1.16-.73-1.6.12-2.45 1.09Zm145.87 68.34c.96-.7 2.83 1.17 1.66 1.65-1.18.48-2.61-.95-1.66-1.65Zm3.18-.7c1.32-.97 2.74 1.09 2 1.87-.74.79-3.33-.89-2-1.87Zm2.56-1.17c.58-1.21 2.87.83 2.22 1.7-.65.87-2.79-.49-2.22-1.7Zm.44-2.91c.27-1.44 3.3.43 2.95 1.39-.34.95-3.22.05-2.95-1.39Zm-3.52.08c2.26 2.73-.77 3.23-1.35 2.53-2.86 2.21-2.83-.13-2.61-.92.22-.78 1.43-2.91 2-3.48.56-.56 3.81-1.49 1.96 1.87Z" fill="pink" stroke="#779" stroke-width=".5"/><path id="an" d="m894.6 493.6c-2.73-1.94-5.09-4.35-5.37-7.37 1.37-9.87 5.5-8.75 10.3-19.86 0 0-4.58-12.23-2-14.21 2.57-1.99 10.67 6.97 14.63 8.24s11.15 2.97 18.67 3.02c7.52 0.06 14.14-10 16.79-7.86 2.64 2.14-1.78 9.79-1.21 14.82 0.06 1.19 0.4 2.75 0.97 4.61" fill="#ccd" stroke="#000"/><path id="ao" d="M911.3 460.07c.33.06-4.46 9.09-6.67 8.65-6.08 2.4 4.63 6.66 16.1-2.48-.87.17 10.32 8.49 12.18 8.12 12.18.49-1.87-10.98-2.73-10.87-5.12.04-16.97-2.14-18.88-3.42Z" fill="#001"/><path id="ap" d="M900.41 465.97c.58-1.43 5.95-3.62 8.12-3.73 0 0-8.27-9.62-10.03-8.96-1.77.67 1.91 12.69 1.91 12.69Zm33.97-1.92c2.52-.74 10.8-8.72 12.31-7.9 1.52.83-5.31 13.27-5.31 13.27-.73-2.01-5.05-4.86-7-5.37Z" fill="pink" stroke="gray"/><path id="aq" d="M911.3 460.07c.33.06-4.46 9.09-6.67 8.65-6.08 2.4 4.63 6.66 16.1-2.48-.87.17 10.32 8.49 12.18 8.12 12.18.49-1.87-10.98-2.73-10.87-5.12.04-16.97-2.14-18.88-3.42Zm-.38 29.93.87 1.53 4.59-4.99-2.49.2 3.41 4.64s2.25-2.39 2.16-2.37m19.53 2.87c-4.73-3.67-14.35-3.31-14.35-3.31m-20.03-5.56s-10.82-5.24-20.36-3.96m6.98 8.49c5.42-2.25 14.58-1.08 14.58-1.08m39.09-4.39c-9.98-.76-19.75 3.16-19.75 3.16m-.6-5.8 4.78-.51m.63 1-4.16.41m-20.42-3.88 3.62 1.3m-2.94-.36 3.84 1.56" fill="none" stroke="#000" stroke-linecap="round" stroke-linejoin="round"/><path id="ar" class="animated" d="M314.18 486.55s-10.54-5.1-12.36-8.73c-1-2.46-2.91-4.55-5.82-5.82-1.88-2.12 2.38-1.25 8.09 3.36-1.34-4.74-5.99-9.43-7.47-8.61-3.12-.13 1-6.13 9.38 5.5.89-.67-4.63-9.21-5.25-8.75-4.13-1.25 1.37-6.62 9.61 8.23 1.51.79-1.48-8.61-3.36-10.11-2.62-.87-1-7.87 9.18 10.29 1.97-.62-1.8-4.03.07-7.66 2.63-7.13 2.3 13.39 10.3 14.3l-12.37 8Z" fill="#ffcca9" stroke="#af7c59"><animate attributeName="d" dur=".3s" keyTimes="0;.2;.4;.6;.8;1" repeatCount="indefinite" values="M 314.18,486.55 C 314.18,486.55 303.64,481.45 301.82,477.82 300.82,475.36 298.91,473.27 296.00,472.00 294.12,469.88 298.38,470.75 304.09,475.36 302.75,470.62 298.10,465.93 296.62,466.75 293.50,466.62 297.62,460.62 306.00,472.25 306.89,471.58 301.37,463.04 300.75,463.50 296.62,462.25 302.12,456.88 310.36,471.73 311.87,472.52 308.88,463.12 307.00,461.62 304.38,460.75 306.00,453.75 316.18,471.91 318.15,471.29 314.38,467.88 316.25,464.25 318.88,457.12 318.55,477.64 326.55,478.55 326.55,478.55 314.18,486.55 314.18,486.55 Z; M 318.10,486.12 C 318.10,486.12 311.14,478.98 309.32,475.35 308.32,472.89 305.66,473.64 302.75,472.38 303.62,470.38 304.94,469.88 310.40,472.31 309.06,467.57 306.86,467.68 305.38,468.50 302.25,468.37 304.89,458.98 313.27,470.61 314.69,470.01 313.00,465.12 309.25,463.75 305.12,462.50 319.00,460.38 316.01,470.35 317.88,471.62 319.50,464.15 314.38,462.25 311.82,461.38 319.18,453.17 322.88,471.38 324.85,470.75 326.88,467.00 327.38,466.38 338.12,461.12 324.50,469.75 330.47,478.12 330.47,478.12 318.10,486.12 318.10,486.12 Z; M 315.22,487.48 C 315.22,487.48 301.70,480.07 299.88,476.44 298.88,473.98 296.39,470.87 292.70,472.39 289.96,472.43 294.52,464.79 299.44,472.06 298.10,467.32 297.86,464.93 296.38,465.75 293.25,465.62 297.88,459.19 302.00,470.69 302.89,470.02 300.81,462.42 300.19,462.88 296.06,461.62 300.69,454.69 305.31,470.31 306.82,471.10 306.82,465.31 304.94,463.81 302.32,462.94 305.69,456.75 309.56,471.00 311.53,470.38 309.32,469.63 311.19,466.00 315.56,461.75 307.88,472.62 324.57,478.78 324.57,478.78 315.22,487.48 315.22,487.48 Z; M 316.79,488.25 C 316.79,488.25 306.25,483.15 304.43,479.52 303.43,477.06 304.53,476.27 301.62,475.00 299.75,472.88 304.25,472.19 306.70,477.06 305.36,472.32 301.39,469.61 299.91,470.43 296.79,470.30 303.78,464.00 308.61,473.95 309.50,473.28 302.56,464.85 301.94,465.31 297.81,464.06 302.88,458.88 312.97,473.43 314.48,474.22 309.94,466.56 308.06,465.06 305.44,464.19 305.88,457.06 318.79,473.61 320.76,472.99 316.99,469.58 318.86,465.95 321.49,458.82 321.16,479.34 329.16,480.25 329.16,480.25 316.79,488.25 316.79,488.25 Z; M 315.83,486.64 C 315.83,486.64 306.34,479.41 304.52,475.78 303.52,473.32 302.56,471.84 299.65,470.57 297.77,468.45 301.61,467.70 306.65,473.91 305.31,469.17 304.39,468.52 301.91,465.83 298.79,465.70 302.65,459.78 309.65,472.65 310.54,471.98 305.62,462.93 305.00,463.39 300.87,462.14 307.13,456.78 313.19,471.77 315.11,472.59 313.78,464.04 313.17,464.04 310.55,463.17 315.00,454.64 317.83,472.00 319.80,471.38 317.56,469.59 319.43,465.96 322.06,458.83 320.20,477.73 328.20,478.64 328.20,478.64 315.83,486.64 315.83,486.64 Z; M 314.18,486.55 C 314.18,486.55 303.64,481.45 301.82,477.82 300.82,475.36 298.91,473.27 296.00,472.00 294.12,469.88 298.38,470.75 304.09,475.36 302.75,470.62 298.10,465.93 296.62,466.75 293.50,466.62 297.62,460.62 306.00,472.25 306.89,471.58 306.07,467.45 305.45,467.91 302.91,469.09 305.73,456.55 310.36,471.73 311.87,472.52 308.88,463.12 307.00,461.62 304.38,460.75 306.00,453.75 316.18,471.91 318.15,471.29 314.38,467.88 316.25,464.25 318.88,457.12 318.55,477.64 326.55,478.55 326.55,478.55 314.18,486.55 314.18,486.55 Z"/></path><path id="as" class="animated" d="M351.67 631c-5.88-2.72-14.67-1.33-14.67-1.33 1.67 15.66-1.73 21.88-1 27.33 1.12 6.17 11.18 17.91 14.33 3.33 5.94 10.12 7.89-.81 6.67-7.66 0 0 5.33-3.67 4.33-11.67.67-5.67-9.34-9.85-9.66-10Z" fill="#bf8c69"><animate attributeName="d" dur="1s" keyTimes="0;.45;.5;.95;1" repeatCount="indefinite" values="M 351.67,631.00 C 345.79,628.28 337.00,629.67 337.00,629.67 338.67,645.33 335.27,651.55 336.00,657.00 337.12,663.17 347.18,674.91 350.33,660.33 356.27,670.45 358.22,659.52 357.00,652.67 357.00,652.67 362.33,649.00 361.33,641.00 362.00,635.33 351.99,631.15 351.67,631.00 Z; M 351.67,631.00 C 345.79,628.28 337.00,629.67 337.00,629.67 338.67,645.33 335.27,651.55 336.00,657.00 337.12,663.17 347.18,674.91 350.33,660.33 356.27,670.45 358.22,659.52 357.00,652.67 357.00,652.67 362.33,649.00 361.33,641.00 362.00,635.33 351.99,631.15 351.67,631.00 Z; M 351.67,631.00 C 345.79,628.28 337.00,629.67 337.00,629.67 338.67,645.33 339.73,655.36 341.09,658.55 346.55,664.18 358.82,666.55 355.00,659.64 358.55,666.82 361.27,659.36 358.18,654.91 353.91,646.64 361.27,644.18 360.27,636.18 360.94,630.51 351.99,631.15 351.67,631.00 Z; M 351.67,631.00 C 345.79,628.28 337.00,629.67 337.00,629.67 338.67,645.33 339.73,655.36 341.09,658.55 346.55,664.18 358.82,666.55 355.00,659.64 358.55,666.82 361.27,659.36 358.18,654.91 353.91,646.64 361.27,644.18 360.27,636.18 360.94,630.51 351.99,631.15 351.67,631.00 Z; M 351.67,631.00 C 345.79,628.28 337.00,629.67 337.00,629.67 338.67,645.33 335.27,651.55 336.00,657.00 337.12,663.17 347.18,674.91 350.33,660.33 356.27,670.45 358.22,659.52 357.00,652.67 357.00,652.67 362.33,649.00 361.33,641.00 362.00,635.33 351.99,631.15 351.67,631.00 Z"/></path><path id="at" class="animated" d="m410.33 608.67 16 1.66c4.76 2.11 7.91 4.07 6.22 7.94-6.04 9.31-3.83 17.43-3.37 17.09.06 5.13-8 8.37-9.63 3.82 1.27 2.73-2.97 6.31-5.46-.36-5.09-8-3.76-30.15-3.76-30.15Z" fill="#bf8c69"><animate attributeName="d" dur="1s" keyTimes="0;.45;.5;.95;1" repeatCount="indefinite" values="M 410.33,608.67 C 410.33,608.67 426.33,610.33 426.33,610.33 431.09,612.44 434.24,614.40 432.55,618.27 426.51,627.58 428.72,635.70 429.18,635.36 429.24,640.49 421.18,643.73 419.55,639.18 420.82,641.91 416.58,645.49 414.09,638.82 409.00,630.82 410.33,608.67 410.33,608.67 Z; M 410.33,608.67 C 410.33,608.67 426.33,610.33 426.33,610.33 431.09,612.44 434.24,614.40 432.55,618.27 426.51,627.58 428.72,635.70 429.18,635.36 429.24,640.49 421.18,643.73 419.55,639.18 420.82,641.91 416.58,645.49 414.09,638.82 409.00,630.82 410.33,608.67 410.33,608.67 Z; M 410.33,608.67 C 410.33,608.67 426.33,610.33 426.33,610.33 431.09,612.44 433.67,617.00 432.67,620.33 428.68,624.49 428.33,637.33 428.33,637.33 428.39,642.46 418.74,646.25 418.67,640.00 420.17,648.94 411.15,644.22 410.33,639.33 410.33,639.33 410.33,608.67 410.33,608.67 Z; M 410.33,608.67 C 410.33,608.67 426.33,610.33 426.33,610.33 431.09,612.44 433.67,617.00 432.67,620.33 428.68,624.49 428.33,637.33 428.33,637.33 428.39,642.46 418.74,646.25 418.67,640.00 420.17,648.94 411.15,644.22 410.33,639.33 410.33,639.33 410.33,608.67 410.33,608.67 Z; M 410.33,608.67 C 410.33,608.67 426.33,610.33 426.33,610.33 431.09,612.44 434.24,614.40 432.55,618.27 426.51,627.58 428.72,635.70 429.18,635.36 429.24,640.49 421.18,643.73 419.55,639.18 420.82,641.91 416.58,645.49 414.09,638.82 409.00,630.82 410.33,608.67 410.33,608.67 Z"/></path><path d="m282.5 391.75-17 23.5c-2.05 5.3.5 12.75.5 12.75l5 17.25 57.75-21.5L303 414.5s-7.36-3.59-4.75-9.25l15.25-23.5-31 10Z" fill="#a9a9a9"/><path d="m200 429.7c0 8 1.48 13.3 11.67 9.66l175.7-61.33 0.34-21.33-187.7 62v11z" fill="silver"/><path d="m200 418 187.33-61.33 3.17-89.42c.25-10.75-.75-14.75-13-11.25l-163 44c-13.75 3.75-14 5.5-14 19.25L200 418Z"/><path id="au" d="m228.2 471.2c14.63-2.3 14.38 15.95-0.05 18.11" fill="none" stroke="#ddd" stroke-width="3"/><path id="av" d="M199.09 466.52c.04 7.61 27.95 8.96 28.04.13.09-8.82-28.09-7.74-28.04-.13Z" fill="#ccc"/><path id="aw" d="M226.77 473.38c.08-8.83-28.09-7.74-28.05-.13l28.05.13Z" fill="#420"/><path id="ax" d="M228 495.45c0 10.37-30.18 9.82-30.36.55l.09-28.55c.09-9.22 30.38-11.78 30.27.1v27.9m-28.91-28.93c.04 7.61 27.95 8.96 28.04.13.09-8.82-28.09-7.74-28.04-.13Z" fill="#ddd"/><path id="ay" d="M350.67 363c-11 4.33-10 27.33.66 22.33 10.67-5 10.34-26.66-.66-22.33Z" fill="#87ceeb7a" stroke="#ddf" stroke-width="2"/><defs><radialGradient id="e" r="1" fx=".7" fy=".1"><stop stop-color="#fff" offset=".05"/><stop stop-color="#ffcca9" offset=".2"/></radialGradient></defs><path id="az" d="m396.6 438c-6.37 1.27-4.94 5.76-16 5.09-11.67 1.54-50.05-50.09-32.58-62.36 4.09-4.11 6.36-5.84 6.36-5.84-1.27-2.08-2.33-5.33-2.33-7.14 0.25-14.63 3.03-17.99 5.67-24.75 6.24-14.91 28.97-26.82 54.4-24.6 35.6 3.27 52.11 29.05 49.93 65.6s-24.73 47.82-56.55 64c-5.72-6.77-1.36-2.64-8.9-10z" fill="url(#e)"/><path id="ba" d="m440 339c-12-38.67 59.67-6.33 50.33-38.67" fill="none" stroke="#eee" stroke-linecap="round" stroke-width="1.5"/><path id="bb" d="M353.75 401.62s8.66 28 16.25 35.29c12.5 7.28 30.62-.41 30.62-.41s-25.79 93.8-38.12 103.25c-1.55.08-15.91-53.33-15.89-98.21-7.86-21.16-12.6-44.47-2.99-51.29 0 0 3.5 9.13 10.13 11.37Z" fill="#fff"/><path id="bc" d="m349.7 410.8c2.37 14.85 20.28 26.07 20.28 26.07-13.36-12.84 4-49.41 4-49.41l-7.25-3.5c-8.66 16.45-15.93 16.55-17.03 26.84z" fill="#fff"/><path id="bd" d="m388.2 381.5c22.14 2.95-6.94 36.08-7.63 19.43-4.17 29.49 37.5-18.04 7.63-19.43z" fill="#dfac89"/><path id="be" d="m452.3 416.3c74 17.34 113.2 208-30.92 182-13.08 29.99-31.74 1.33-54.05 28.27-15.45 5.38-36.54 9.89-37.15-4.86-3.48-29.83-4.17-75.28 3.99-81.18 21.47-19.57 38.8-3.9 64.47-25.24l-8.34-16.66c-0.91 4.72-22.97 15.54-32 17.79-49.33 52.87-47.33 6.21-44.33-25.79-2.53-3.9 12.84-21.2 19.67-10.67 0 0 12.34 11.49 21.19 7.32 6.95-6.24 25.41-52.03 47.81-50.99 10.83-9.08 39.45-20.08 49.66-20z" fill="#3a3356"/><path id="bf" d="M348 488.12c2.3.31 3.34.15 4.74-.08-7.52 3-26.86 42.84-32.49 23.84 3.87 12.37 26.5-20.26 27.75-23.76Zm42.5 9.63c4.12-9.63 18.12-17.95 21.25-14.13-6.4-.99-15.5 8.76-10.75 12.76-.41-.82 14.5-5.63 21.25-1.5-10.63-.38-16.5 4.12-16.13 7-1.62 13.37 7.13 43.37 7.13 43.37l-22.75-47.5Zm-38.14 32.61c2.46-.63 7.89-1.74 15.46-2.09 7.57-.35 35.54 5.18 35.54 5.18-17.48-1.7-49.36-4.2-55.72-1 0-.01 4.54-2.04 4.72-2.09Zm23.02 89.02L363 578c-3.38-2.75-10.88.62-10.88.62 1.5-2.87 4.88-6.56 10.26-5.31-2.38-3.5-11.88-12.81-11.88-12.81s11.25 10.44 15 10.75c-1.75-3.06-.12-7.56-.12-7.56s.62 6 4.62 8.43c0 0 17.19 4.88 24.12 5.63-2-3.69-1.87-8.63-1.87-8.63s1.25 5.63 4.5 7.88L422 589.62c-3.09 37.93-31.82 16.11-46.62 29.76Z" fill="#251e41"/><path id="bg" d="M416.64 587.4c-1-3.4-30.13-8.5-31.51-8.34-.22-2.7-18.13-5.06-18.13-5.06-7.61.55-3.23 9.3 1 9l80.91 23 75.45-29.82s-7.4-11.86-13.05-11.37c-3.12 4.88-3.31 6.13-6.76 10.83-11.12 2.38-25.82 5.63-35.1 13.45-13.81 2.18-19.95 7.91-19.95 7.91s-29.68-11.36-32.86-9.6Z" fill="#dc143c" stroke="#800"/><path id="bh" d="m434.4 489.8 109.4-35.91-17.75 237.6-15.84-96.29-50 19.52-10.66 106.3-8.09-104.7-60.16-16.4-14.25 91.61-0.59-109.6 74.22 16.39-6.25-108.5zm68.75 1.56-7.82 95.22 19.53-7.02 11.72-99.13-23.43 10.93zm-25 9.36-25.79 7.03 3.13 94.45 17.97-6.25 4.69-95.23z" fill="#422"/><defs><radialGradient id="c" cy=".7" r="1" fx=".65" fy="0"><stop stop-color="#ffff8899" offset="0"/><stop stop-color="#ffff8800" offset=".55"/></radialGradient><linearGradient id="a" gradientTransform="rotate(90)"><stop stop-color="#ffffff00" offset="0"><animate attributeName="offset" dur="2s" from="1" repeatCount="indefinite" to="-.3"/></stop><stop stop-color="#fffd" offset=".2"><animate attributeName="offset" dur="2s" from="1.3" repeatCount="indefinite" to="0"/></stop><stop stop-color="#ffffff00" offset=".3"><animate attributeName="offset" dur="2s" from="1.6" repeatCount="indefinite" to=".3"/></stop></linearGradient></defs><g fill="none" stroke="#0ff" stroke-width="3"><path class="animated" d="m220.8 312"><animate attributeName="d" dur="2s" keyTimes="0;.12;1" repeatCount="indefinite" values="M220.75,312.00L220.75,312.00Z; M220.75,312.00 L249.25,303.25Z; M220.75,312.00 L249.25,303.25Z"/></path><path class="animated" d="m220.2 325.8"><animate attributeName="d" dur="2s" keyTimes="0;.12;.25;1" repeatCount="indefinite" values="M220.25,325.75L220.25,325.75Z;M220.25,325.75L220.25,325.75Z; M220.25,325.75L345.00,292.50Z;M220.25,325.75L345.00,292.50Z"/></path><path class="animated" d="m242.8 331.5"><animate attributeName="d" dur="2s" keyTimes="0;.25;.37;1" repeatCount="indefinite" values="M242.75,331.50L242.75,331.50Z;M242.75,331.50L242.75,331.50Z; M242.75,331.50L284.00,319.75Z;M242.75,331.50L284.00,319.75Z"/></path><path class="animated" d="m243.2 343"><animate attributeName="d" dur="2s" keyTimes="0;.37;.5;1" repeatCount="indefinite" values="M243.25,343.00L243.25,343.00Z;M243.25,343.00L243.25,343.00Z; M243.25,343.00L305.50,324.50Z;M243.25,343.00L305.50,324.50Z"/></path><path class="animated" d="m267.8 344"><animate attributeName="d" dur="2s" keyTimes="0;.5;.62;1" repeatCount="indefinite" values="M267.75,344.00L267.75,344.00Z;M267.75,344.00L267.75,344.00Z; M267.75,344.00L322.00,329.50Z;M267.75,344.00L322.00,329.50Z"/></path><path class="animated" d="m268.2 351.2"><animate attributeName="d" dur="2s" keyTimes="0;.62;.75;1" repeatCount="indefinite" values="M268.25,351.25L268.25,351.25Z; M268.25,351.25L268.25,351.25Z; M268.25,351.25L290.75,345.00Z; M268.25,351.25L290.75,345.00Z"/></path><path class="animated" d="m247 368.8"><animate attributeName="d" dur="2s" keyTimes="0;.75;.87;1" repeatCount="indefinite" values="M247.00,368.75L247.00,368.75Z;M247.00,368.75L247.00,368.75Z; M247.00,368.75L274.00,360.75Z;M247.00,368.75L274.00,360.75Z"/></path><path class="animated" d="m222 388"><animate attributeName="d" dur="2s" keyTimes="0;.87;.99;1" repeatCount="indefinite" values="M222.00,388.00L222.00,388.00Z;M222.00,388.00L222.00,388.00Z; M222.00,388.00L260.50,375.75Z;M222.00,388.00L260.50,375.75Z"/></path></g><path id="bi" class="animated" d="M212.36 464.64s6.37-8.09-6.81-17c-13.19-8.91 10.18-.55 10-9.28-.19-8.72-15.64-23.72-15.64-23.72s25.73 15.91 26.09 23.81c.36 7.91-16.18 7.82-11.55 12.55 4.64 4.73-2.09 13.64-2.09 13.64Z" fill="url(#a)"/><path id="bj" class="animated" d="M354.93 377.34c-2.45-2.45-.89-8.13 1.68-6.63 2 1.16 4.32 6.27.23 4.45 1.45 2.06 1.81 3.63 1.55 4.66-.36 1.42-1.9 1.84-3.38 1.17-3.53-1.92-1.71-4.19-.08-3.65Z"><animate attributeName="d" dur="1.8s" keyTimes="0;.01;.1;1" repeatCount="indefinite" values="M 354.93,377.34 C 352.48,374.89 354.04,369.21 356.61,370.71 358.61,371.87 360.93,376.98 356.84,375.16 358.29,377.22 358.65,378.79 358.39,379.82 358.03,381.24 356.49,381.66 355.01,380.99 351.48,379.07 353.30,376.80 354.93,377.34 Z; M 355.44,377.12 C 352.99,374.68 352.93,373.94 355.50,375.44 357.50,376.60 359.65,377.88 355.56,376.06 357.01,378.12 358.70,377.35 358.44,378.38 357.06,378.69 357.29,378.98 355.81,378.31 352.28,376.39 353.81,376.59 355.44,377.12 Z; M 354.93,377.34 C 352.48,374.89 354.04,369.21 356.61,370.71 358.61,371.87 360.93,376.98 356.84,375.16 358.29,377.22 358.65,378.79 358.39,379.82 358.03,381.24 356.49,381.66 355.01,380.99 351.48,379.07 353.30,376.80 354.93,377.34 Z; M 354.93,377.34 C 352.48,374.89 354.04,369.21 356.61,370.71 358.61,371.87 360.93,376.98 356.84,375.16 358.29,377.22 358.65,378.79 358.39,379.82 358.03,381.24 356.49,381.66 355.01,380.99 351.48,379.07 353.30,376.80 354.93,377.34 Z"/></path><path id="bk" class="animated" d="m424 223 88 14 134 344c-19.46 221.7-606 143-542-106l320-252z" fill="url(#c)"><animate attributeName="opacity" calcMode="discrete" dur="5s" keyTimes="0;.25;.26;.30;.31;.32;.33;.99;1" repeatCount="indefinite" values="1;0;1;0;1;0;1;0;1"/></path></svg>
