<svg viewBox="0 0 139 166" fill="none" xmlns="http://www.w3.org/2000/svg"
    class="prefix__css-8azlst">
    <path
        d="m33.6 153.3.5-2.8a1.2 1.2 0 0 1 .7-1l2.5-1.1L35 145l-2.3.9c-.2 1.5-.2 3 0 4.5.2 1 .5 2 1 3Z"
        fill="#F4D1B3"></path>
    <path
        d="M32.7 155.9c.3-.3.6-.7.7-1.2l.2-1.4a10 10 0 0 1-1-3c-.2-1.4-.2-3 0-4.4l-1.4.5 1.3 9.6.2-.1Z"
        fill="#7DB3FF"></path>
    <path d="m31.1 146.4-1 .4 1.7 9.2h.7l-1.4-9.6Z" fill="#578BFF"></path>
    <path
        d="M51 139.9a4.5 4.5 0 0 0 3.2-3.7l3.8-20-1.8-.6c-2.2-.6-4.5-2-6.4-.8a10 10 0 0 0-2.6 4.8c-.3 2-.5 4-.5 6 0 3.4.3 6.8.4 10.2"
        fill="#8582B4"></path>
    <path
        d="M32.5 143.5a.4.4 0 0 0-.1.4c1 2.7 2 5.6 2.8 8.4.3.6 2.3-1.2 2.6-1.5 1.9-1.3 3.7-2.4 5.5-3.8a50 50 0 0 0 10.6-9.7c.7-3.4-5-5-6.9-3.6a38.4 38.4 0 0 1-5.5 3.8l-3.8 2.2c-1.3.8-2.6 1.8-3.7 2.8 0 0-1 .8-1.5 1Z"
        fill="#8582B4"></path>
    <path
        d="M31.4 112.4c-.4.2-.7.5-.9.8a1 1 0 0 0 .8 1.2 3 3 0 0 0 1.7-.1c2.7-.8 5.4-1.8 8-3 .9-.3 1.6-.9 2-1.7.4-1-.5-1.9-1.5-1.9a112.4 112.4 0 0 0-6.3 2.7l-3.8 2Z"
        fill="#F2D7C2"></path>
    <path
        d="m61.5 157.6-2.3-1.8a1.2 1.2 0 0 1-.4-1l.1-2.8-4 .6-.3 2.4c1.2.9 2.6 1.6 4 2 1 .4 2 .6 3 .6Z"
        fill="#F4D1B3"></path>
    <path
        d="M63.4 159.6a2 2 0 0 0-.8-1.1l-1.1-.9c-1 0-2-.2-3-.5-1.4-.5-2.8-1.1-4-2l-.2 1.5 9 3.4c.1-.1 0-.3 0-.4Z"
        fill="#7DB3FF"></path>
    <path d="m54.3 156.6-.1 1.1 9 2.8.1-.5v-.1l-9-3.3Z" fill="#578BFF"></path>
    <path
        d="M54.7 128.8s2.5 7 2 9c-.4 2-1 3.8-1.7 5.6a25 25 0 0 0-1.2 4c-.4 1.3-.7 2.6-.8 4l-.3 1.4a.3.3 0 0 0 .3.4c2.6 0 5.4.2 8 .4.5 0 .7-2.3.8-2.7.4-2 1-3.8 1.3-5.8.7-3.4 1.2-7 1.3-10.4.2-5-4.5-17.8-4.5-17.8l-3.8-1.2-1.4 13.1Z"
        fill="#8582B4"></path>
    <path
        d="M58.9 96.7c.1.9.3 2.3-.6 2.9l-1.7-2 1-1.5 1.3.6ZM51 93l-1.3.5h-1.9l-2.6-.4a2.4 2.4 0 0 0-1.7.8l-.2.5a2.4 2.4 0 0 0 1.2 2.4l1.2.3c1 .2 1.9.2 2.8-.1 1-.4 1.7-1.4 2.6-1.8.3 0 .5-.1.7-.3.3-.2.6-.4.8-.8.5-1-.7-1.4-1.5-1.1Z"
        fill="#331A09"></path>
    <path
        d="m43.7 105.8-4.5 2.5c.2.9.5 1.7.9 2.5l1 1.4 6-2.6c1.6-.5 3.2-1.2 4.7-2 .7-.2 1.3-.6 1.7-1.2a2.3 2.3 0 0 0 0-2c-.2-.5-.2-1.6-.7-1.9-1-.1-2 0-3 .3a44 44 0 0 0-6 3Z"
        fill="#BAE4E0"></path>
    <path
        d="M61.1 113.6c0-2.2 0-4.4-.2-6.5l-.8-4c-.4 0-1.7-.7-2-.7l-1.8.1-1.7-.2-1.3.1a1.6 1.6 0 0 0-1.7.8 11.4 11.4 0 0 0-2 5.3c-.7 3.6-1.7 7.2-2.8 10.7 3 .7 6 1 9.1 1 2 .2 4 .1 5.8-.3 0-1.8-.3-3.2-.6-6.3Z"
        fill="#BAE4E0"></path>
    <path
        d="m55.1 100.4-.1-.2h-1.1V98.7l-.1-.1V93.7H57.2v1.7a60.8 60.8 0 0 0 0 .4V99.8l-.2.1-.1.2H56.5v.8H55.3l-.1-.1-.2-.2.1-.2Z"
        fill="#44250C"></path>
    <path fill-rule="evenodd" clip-rule="evenodd"
        d="m52 102.5 1.5 2a3 3 0 0 0 2.2.9c.6 0 1.3-.3 1.8-.7.5-.5.8-2.2.3-2.3-1-.2-.3-2-.4-2.4l-1.1-.2c-.4 0-3.6-1.3-3.5-1 0 .4.9 3.3-.8 3.7Z"
        fill="#F4D1B3"></path>
    <path
        d="M53.6 100.5v.1l.2.2h.2l.1.2h.2v.1H57.4l.1-.1.1-.1.2-.2V94.6l-.2-.2-.2-.2H53.6l-.1.1h-.2l-.1.2-.1.1-.1.2V99.4l.2.1V99.8l.2.1v.2l.2.4Z"
        fill="#F2D7C2"></path>
    <path
        d="M53 97.9c1-.8 2-2 2.3-3.3 0-.3-.4-.8-.5-1.1-.2-.3 0 0 0 .1l2-.1a4.7 4.7 0 0 0-4.8 0 3.6 3.6 0 0 0-1.4 3.2c0 1.2.5 4 2.6 4 0 .1-.6-2.5-.2-2.8Z"
        fill="#44250C"></path>
    <path
        d="M55 94.4a6 6 0 0 0 2.4 2.2H59a4 4 0 0 0-1.6-3l-.4-.2c-.4-.2-.9-.3-1.3-.3l-.5.1-.2.2-.2.2c0 .1 0 .3.2.4l.2.4Z"
        fill="#44250C"></path>
    <path d="M56.9 98.9c-.4 0-1.2 0-1.3.4 0 .5 1 .8 1.4.5a.7.7 0 0 0 .3-.7c0-.2-.2-.2-.4-.2Z"
        fill="#E25344" opacity=".2"></path>
    <path opacity=".4" d="m55.4 99.3.3.1h1.5" stroke="#FF6B56" stroke-width=".1"
        stroke-miterlimit="10"></path>
    <path d="m51.9 98.2.1.6c.2.3.5.5.9.6.7.2.9-.7.5-1.2s-1.3-.7-1.5 0Z" fill="#F2D7C2"></path>
    <path
        d="M56.7 95c-.2 0-.5 0-.6.2a.3.3 0 0 0 .2.4l.5.1c.5 0 1 .2 1.4.5l1.5.8a3.4 3.4 0 0 0 3-.2l.1-.1-.2-.4c-.5-.6-1.1-1-1.8-1l-2.6-.2-1.5-.1Z"
        fill="#F4D1B3"></path>
    <path
        d="M67.4 102.1c1-.2 2.1-.3 3.3-.2a2 2 0 0 1 .9 2.5 5 5 0 0 1-2.4 1.3c-2 .6-6.4 1.4-8.5 2-.7.2-.8-1-1.1-1.5-.7-1.2-1.2-2.4-1.5-3.7 2.3-.4 6.9-.2 9.3-.4Z"
        fill="#BAE4E0"></path>
    <path
        d="M58 102.4c-.3 0-.5-.3-.6-.6h-.2a3 3 0 0 1-2.7.5 4 4 0 0 1-1.7-.9h-.1a.2.2 0 0 0-.2 0c-.2.5-.5.8-.8 1.1-.5.3 1 2.1 1 2.1l3.6 2.4 2.3-3.7-.6-1"
        fill="#BAE4E0"></path>
    <path
        d="M61.5 95.5a64 64 0 0 1 9.7 7.1l.2.6a1.6 1.6 0 0 1-2 1.5 383 383 0 0 1-8.5-7.9l.6-1.3Z"
        fill="#F4D1B3"></path>
    <path opacity=".2"
        d="M40.4 107.5c.5.5 1 .8 1.6.9a1.7 1.7 0 0 0 1.7-.6c.2-.4.3-.9.6-1.3l.7-.6a.9.9 0 0 0 .2-.9M48.7 112.3a1.6 1.6 0 0 1 1.4 1l.6 1.7 1.5 2.4a3.4 3.4 0 0 1 .6 2.7M61 109.6c-.7 0-1.1.7-1.4 1.3-.1.6-.4 1.2-.8 1.7a6 6 0 0 1-1 .8 1.4 1.4 0 0 0-.5 1 1.2 1.2 0 0 0 1 1c.5.1 1 .1 1.6 0a2 2 0 0 1 1.5.5M48.3 103.3a6.1 6.1 0 0 0 2.6 2.9 4 4 0 0 0 3.7.1l1.7-1.1 1.5-.6c.5-.2 1-.4 1.4-.8a1.5 1.5 0 0 0 .3-1.5"
        stroke="#6FC0B6" stroke-width=".1" stroke-miterlimit="10"></path>
    <path fill-rule="evenodd" clip-rule="evenodd"
        d="M7.7 10.1c10.8-1 22.5-1.9 31.4 4.3 6.8 4.8 11.1 13.2 19 15.7 5.2 1.6 10.8.2 16-1a131 131 0 0 1 32.9-5c11 .2 22.4 3 31.2 9.8-17.4-.5-35 7-47.6 19-6.9 6.4-12.6 14.5-21 18.7a40 40 0 0 1-31.4 0c-5.6-2-11.4-4.8-17.2-3.8L7.7 10Z"
        fill="#578BFF"></path>
    <path d="M5.5 6c10.2 41.8 30.8 130 38 159.2" stroke="#F2DC5D" stroke-width="2"
        stroke-miterlimit="10"></path>
    <path d="M5.5 10.2a4.6 4.6 0 1 0 0-9.3 4.6 4.6 0 0 0 0 9.3Z" fill="#F6E78E"></path>
    <path fill-rule="evenodd" clip-rule="evenodd"
        d="m58.3 45.5-3.6-5-3.3 5.2a4.2 4.2 0 0 1-6.7.6l-5-5.5 4.5 18.6 21.9-.5L69.6 40 65 45.8a4.2 4.2 0 0 1-6.7-.3Z"
        fill="#F6E78E"></path>
    <path
        d="M40.4 44.7a3.3 3.3 0 1 0 0-6.5 3.3 3.3 0 0 0 0 6.5ZM69 44a3.3 3.3 0 1 0 0-6.6 3.3 3.3 0 0 0 0 6.5ZM54.7 42.3a3.3 3.3 0 1 0 0-6.6 3.3 3.3 0 0 0 0 6.6Z"
        fill="#E8C52F"></path>
    <path
        d="M31.4 112.6a1.1 1.1 0 0 1 .4 1.2c-.1.3-.3.6-.6.8l-1 .5c-1.2.6-1.2.6-2 .3-.7-.2-1-2-.5-2.7.4-.8 3.2-.5 3.7 0Z"
        fill="#F2D7C2"></path>
</svg>