<svg id="Ebene_1" data-name="Ebene 1" xmlns="http://www.w3.org/2000/svg" viewBox="0 0 429.12 433.7254"><defs><style>.cls-1{isolation:isolate;opacity:0.1;}.cls-2{fill:#dcdde2;}.cls-3{fill:#e9eaf2;}.cls-4{fill:#b1b6c4;}.cls-5{fill:#ced1d8;}.cls-6{fill:#ffcea9;}.cls-7{fill:#ededed;}.cls-8{fill:#004e57;}.cls-10{fill:#f4f4f4;}.cls-11{fill:#2e373c;}</style></defs><polygon class="cls-1" points="212.265 356.539 96.039 290.302 269.754 190.739 385.564 257.392 212.265 356.539"/><polygon class="cls-2" points="377.706 257.842 226.167 345.471 226.167 170.213 377.706 82.584 377.706 257.842"/><polygon class="cls-3" points="226.453 170.048 377.777 82.543 265.137 17.407 113.238 104.864 226.453 170.048"/><polygon class="cls-4" points="346.968 84.888 355.72 80.12 274.072 32.725 265.188 37.654 346.968 84.888"/><polygon class="cls-4" points="328.507 95.925 332.883 93.621 251.235 46.226 246.727 48.691 328.507 95.925"/><polygon class="cls-4" points="319.644 101.191 324.02 98.887 242.373 51.492 237.865 53.957 319.644 101.191"/><polygon class="cls-4" points="310.782 106.062 315.158 103.759 233.511 56.364 229.002 58.828 310.782 106.062"/><polygon class="cls-4" points="284.195 121.77 288.571 119.466 206.924 72.071 202.415 74.536 284.195 121.77"/><polygon class="cls-4" points="275.333 126.783 279.709 124.48 198.061 77.085 193.553 79.549 275.333 126.783"/><polygon class="cls-4" points="266.47 132.282 270.846 129.978 189.199 82.584 184.691 85.048 266.47 132.282"/><polygon class="cls-4" points="257.608 137.105 261.984 134.802 180.337 87.407 175.828 89.871 257.608 137.105"/><polygon class="cls-4" points="251.366 76.994 224.648 61.485 220.14 63.949 246.959 79.439 251.366 76.994"/><polygon class="cls-4" points="219.998 120.574 171.474 92.406 166.966 94.871 215.647 122.988 219.998 120.574"/><polygon class="cls-5" points="113.238 105.194 113.238 280.452 226.167 345.471 226.167 170.213 113.238 105.194"/><polygon class="cls-3" points="352.591 97.239 281.129 51.439 277.04 53.55 352.591 97.239"/><polygon class="cls-3" points="376.483 112.551 228.868 197.911 235.516 202.154 390.678 121.649 376.483 112.551"/><polygon class="cls-3" points="113.583 192.043 102.039 199.99 220.127 255.86 222.08 254.511 113.583 192.043"/><polygon class="cls-3" points="376.774 203.423 231.298 287.546 242.426 295.119 399.892 219.219 376.774 203.423"/><path id="_Контур_" data-name=" Контур " class="cls-6" d="M32.5363,307.6066c-.3,2.3-3,12.4-2.5,15.8s10.1,9.2,10.1,9.2l1.3-5.9-5.3-5.2,1.4-9.8Z"/><path id="_Контур_2" data-name=" Контур 2" class="cls-7" d="M39.9363,297.7066a4.1561,4.1561,0,0,0-5.3,1.6c-1.4,2.3-2.8,10.3-3,11.6,0,0,2,2.7,4.9,2.3Z"/><path class="cls-8" d="M50.7363,409.9066a7.9316,7.9316,0,0,0,6.2-.8c1.5,0,9.5-3.4,10.6-.5,1,2.5-2.5,4.9-4.4,5.3-4.1,1-7.1,3-8.7,3.4-1.2.2-2.8.4-3.8-.5C49.5363,415.6066,49.6363,411.4066,50.7363,409.9066Z"/><path class="cls-9" d="M54.4363,416.6066c1.6-.3,4.6-2.4,8.7-3.4,1.6-.4,4.2-2.1,4.5-4.1.4,2.3-2.8,4.4-4.5,4.8-4.1,1-7.1,3-8.7,3.4-1.2.2-2.8.4-3.8-.5a1.9053,1.9053,0,0,1-.5-1A5.0334,5.0334,0,0,0,54.4363,416.6066Z"/><path class="cls-8" d="M37.7363,404.0066a8.3506,8.3506,0,0,0,6.2-.7c1.5,0,9.5-3.4,10.6-.5,1,2.5-2.5,4.9-4.4,5.3-4.1,1-7.1,3-8.7,3.4-1.2.2-2.8.4-3.8-.5C36.4363,409.7066,36.5363,405.5066,37.7363,404.0066Z"/><path class="cls-9" d="M41.3363,410.7066c1.6-.4,4.6-2.4,8.7-3.4,1.6-.4,4.2-2.1,4.5-4.1.4,2.3-2.8,4.4-4.5,4.8-4.1,1-7.1,3-8.7,3.4-1.2.2-2.8.4-3.8-.5a1.9053,1.9053,0,0,1-.5-1A5.1594,5.1594,0,0,0,41.3363,410.7066Z"/><path id="_Контур_3" data-name=" Контур 3" class="cls-9" d="M37.5363,382.1066a52.8383,52.8383,0,0,1,1.8-8.8s-.6-7.6-.8-14.8c-.3-8.2-3.2-15.4-.9-21.9l25.2,5.6s-1.5,32.6-1.9,36.5c-.2,3.1-.6,6.1-1.1,9.2-1.2,6.3-3,21.4-3,21.4a9.9236,9.9236,0,0,1-6.2.7s.2-19,.4-23.6c.2-5.6.4-5.1.4-5.1l-.8-13.9-.5-6.9s-.7,5.1-1.2,9.6c-.4,3.9-1.3,7.5-2.4,14.9-.9,6.4-2.4,19.2-2.4,19.2-2.7,1.5-6.3.3-6.3.3S36.8363,387.7066,37.5363,382.1066Z"/><path id="_Контур_4" data-name=" Контур 4" class="cls-6" d="M41.2363,297.8066c1.9.1,3.4.6,3.6,0,.2-1,.3-2,.4-3l-.4-1.2c-2.4-1.5-3.2-4.1-3.5-7.1-.5-5.2,2.3-9.7,7.4-10.3,4.9-.5,8.5,2.9,9.4,7.6.5,2.3,1.6,6.7.2,10.5-.8,2.1-1.8,3.8-2.8,4.2a14.2792,14.2792,0,0,1-2.9-.3h0s-.3,1.4-.4,2.4-.1,1.4,1.7,2.5-2.8,3.5-5.8,3.3-6.4-2-7.4-4C39.8363,300.3066,39.9363,297.8066,41.2363,297.8066Z"/><path id="_Контур_5" data-name=" Контур 5" class="cls-10" d="M44.0363,298.1066c-.5,1.3.8,3,4.4,4.1s3.9-.3,3.9-.3c2.4,1.1,4.7,2.3,7,3.6,2.2,1.5,3.1,5.9,3.4,13.3.3,8.6.4,21.3.1,23.5,0,0-4,4-9.2,3.6s-13.9-5-16-8.5c.1-7.5.9-8.7-.3-13-2.8-9.9-4.2-14-2.9-20.5,1.1-5.4,2.7-6.1,4.8-6A19.3248,19.3248,0,0,1,44.0363,298.1066Z"/><path class="cls-11" d="M58.0363,283.2066s4.5-6.8-5.2-8.2c-7-1-11.5,3.5-12,8.4-.5,4.7,2.4,9.5,4.4,11.4a8.65,8.65,0,0,0,6.1-.7,24.1279,24.1279,0,0,0,.1-3.8S48.0363,283.1066,58.0363,283.2066Z"/><path id="_Контур_6" data-name=" Контур 6" class="cls-6" d="M69.4293,289.6437c3.291,2.9782,1.5365,5.2191.0333,6.9339-3.73,4.1483-7.3457,7.3818-9.3785,9.9269-2.3393,2.9879-2.1772,4.32-1.7672,6.207.437,2.1092,2.8482,2.6717,6.2973-.4514a84.7975,84.7975,0,0,0,10.8547-11.8636c1.1415-1.3553,2.8972-3.9568,3.1542-6.2858.2864-2.828-1.6186-5.5244-5.3794-9.0311-1.5762-1.475-3.985-2.7586-7.7774-5.045-1.0242-.6412-1.7159-1.1426-3.709-2.3416a13.5836,13.5836,0,0,0-6.4279-2.1007c-1.9413-.034-2.58.2691-2.8033.6566s.1081.8879.9678.9184a10.4006,10.4006,0,0,1,4.046,1.0392s-1.885-.3112-3.0771-.4814a10.1459,10.1459,0,0,0-3.0512.1012c-.9712.1633-1.6136,1.548-.6987,1.6619s1.5808.0328,3.272.2323a17.979,17.979,0,0,1,2.6883.6188,17.4866,17.4866,0,0,0-3.4117.1,4.845,4.845,0,0,0-2.5544.8516c-.4169.276-.4474,1.1357.6343,1.1392a16.2857,16.2857,0,0,1,4.188-.0143c1.3859.2818,2.3278.6176,2.0777.7832a15.0394,15.0394,0,0,0-2.1645.3537c-1.1662.4123-2.0012,1.3248-1.6981,1.9637s.1926.4721,1.3858.2818a23.7069,23.7069,0,0,0,3.9673-.3478,6.2247,6.2247,0,0,1,3.4951-.1553C63.9786,285.5769,66.3322,286.7771,69.4293,289.6437Z"/><path id="_Контур_7" data-name=" Контур 7" class="cls-7" d="M54.2551,314.2542c-1.2823-2.521-.6975-4.8336,2.9528-7.4519s6.7047-4.5052,6.7047-4.5052a7.6863,7.6863,0,0,1,4.578,3.51c1.8546,2.96.7276,4.612.7276,4.612s-3.9686,2.3043-6.7091,3.8728S55.985,317.4678,54.2551,314.2542Z"/></svg>