<svg id="visual" viewBox="0 0 900 600" width="900" height="600" xmlns="http://www.w3.org/2000/svg" xmlns:xlink="http://www.w3.org/1999/xlink" version="1.1">
    <path d="M0 437L21.5 423.3C43 409.7 86 382.3 128.8 367.8C171.7 353.3 214.3 351.7 257.2 355.3C300 359 343 368 385.8 383.2C428.7 398.3 471.3 419.7 514.2 422.2C557 424.7 600 408.3 642.8 403.2C685.7 398 728.3 404 771.2 399.7C814 395.3 857 380.7 878.5 373.3L900 366L900 601L878.5 601C857 601 814 601 771.2 601C728.3 601 685.7 601 642.8 601C600 601 557 601 514.2 601C471.3 601 428.7 601 385.8 601C343 601 300 601 257.2 601C214.3 601 171.7 601 128.8 601C86 601 43 601 21.5 601L0 601Z" fill="#809bca" fill-opacity="0.1"></path>
    <path d="M0 457L21.5 451.5C43 446 86 435 128.8 424.7C171.7 414.3 214.3 404.7 257.2 405.2C300 405.7 343 416.3 385.8 419.7C428.7 423 471.3 419 514.2 425.7C557 432.3 600 449.7 642.8 453C685.7 456.3 728.3 445.7 771.2 438.2C814 430.7 857 426.3 878.5 424.2L900 422L900 601L878.5 601C857 601 814 601 771.2 601C728.3 601 685.7 601 642.8 601C600 601 557 601 514.2 601C471.3 601 428.7 601 385.8 601C343 601 300 601 257.2 601C214.3 601 171.7 601 128.8 601C86 601 43 601 21.5 601L0 601Z" fill="#6078a9" fill-opacity="0.1"></path>
    <path d="M0 437L21.5 438.7C43 440.3 86 443.7 128.8 454.5C171.7 465.3 214.3 483.7 257.2 491C300 498.3 343 494.7 385.8 494C428.7 493.3 471.3 495.7 514.2 497.7C557 499.7 600 501.3 642.8 495.5C685.7 489.7 728.3 476.3 771.2 466.7C814 457 857 451 878.5 448L900 445L900 601L878.5 601C857 601 814 601 771.2 601C728.3 601 685.7 601 642.8 601C600 601 557 601 514.2 601C471.3 601 428.7 601 385.8 601C343 601 300 601 257.2 601C214.3 601 171.7 601 128.8 601C86 601 43 601 21.5 601L0 601Z" fill="#425789" fill-opacity="0.1"></path>
    <path d="M0 494L21.5 495.3C43 496.7 86 499.3 128.8 503.8C171.7 508.3 214.3 514.7 257.2 517C300 519.3 343 517.7 385.8 511.5C428.7 505.3 471.3 494.7 514.2 488.8C557 483 600 482 642.8 486.8C685.7 491.7 728.3 502.3 771.2 502.8C814 503.3 857 493.7 878.5 488.8L900 484L900 601L878.5 601C857 601 814 601 771.2 601C728.3 601 685.7 601 642.8 601C600 601 557 601 514.2 601C471.3 601 428.7 601 385.8 601C343 601 300 601 257.2 601C214.3 601 171.7 601 128.8 601C86 601 43 601 21.5 601L0 601Z" fill="#243869" fill-opacity="0.1"></path>
    <path d="M0 525L21.5 527.3C43 529.7 86 534.3 128.8 542.2C171.7 550 214.3 561 257.2 563.5C300 566 343 560 385.8 555.7C428.7 551.3 471.3 548.7 514.2 548.7C557 548.7 600 551.3 642.8 556C685.7 560.7 728.3 567.3 771.2 565.5C814 563.7 857 553.3 878.5 548.2L900 543L900 601L878.5 601C857 601 814 601 771.2 601C728.3 601 685.7 601 642.8 601C600 601 557 601 514.2 601C471.3 601 428.7 601 385.8 601C343 601 300 601 257.2 601C214.3 601 171.7 601 128.8 601C86 601 43 601 21.5 601L0 601Z" fill="#001b4b" fill-opacity="0.1"></path></svg>