<svg id="visual" viewBox="0 0 900 600" width="900" height="600" xmlns="http://www.w3.org/2000/svg" xmlns:xlink="http://www.w3.org/1999/xlink" version="1.1"><g><g transform="translate(348 511)">
    <path d="M66.6 -56.6C90.3 -43 116.1 -21.5 111.9 -4.2C107.8 13.2 73.7 26.4 50 36.2C26.4 46 13.2 52.4 -9.2 61.7C-31.6 70.9 -63.3 82.9 -86.4 73.1C-109.5 63.3 -124.1 31.6 -115.4 8.7C-106.8 -14.3 -74.9 -28.6 -51.7 -42.3C-28.6 -56 -14.3 -69 3.6 -72.6C21.5 -76.2 43 -70.3 66.6 -56.6Z" stroke="#809BCA" fill="none" stroke-width="20" opacity="0.2"></path></g><g transform="translate(526 221)">
        <path d="M63.9 -65C81.2 -46.6 92.7 -23.3 95.7 3C98.7 29.3 93.3 58.6 75.9 78.8C58.6 99.1 29.3 110.3 1.8 108.5C-25.7 106.7 -51.4 91.9 -64.2 71.7C-77 51.4 -76.9 25.7 -73 4C-69 -17.8 -61.2 -35.6 -48.4 -54C-35.6 -72.5 -17.8 -91.6 2.7 -94.3C23.3 -97.1 46.6 -83.4 63.9 -65Z" stroke="#809BCA" fill="none" stroke-width="20" opacity="0.2"></path></g><g transform="translate(106 267)">
            <path d="M49.7 -45.6C67.7 -31.7 87.9 -15.8 90.5 2.5C93 20.9 77.8 41.8 59.8 49C41.8 56.3 20.9 49.9 3.5 46.4C-13.9 42.9 -27.8 42.3 -44.5 35C-61.2 27.8 -80.9 13.9 -84.1 -3.2C-87.3 -20.3 -74.1 -40.6 -57.3 -54.5C-40.6 -68.3 -20.3 -75.8 -2.2 -73.6C15.8 -71.4 31.7 -59.4 49.7 -45.6Z" stroke="#809BCA" fill="none" stroke-width="20" opacity="0.2"></path></g><g transform="translate(718 500)">
                <path d="M78.6 -75.2C101.2 -56 118.4 -28 119.7 1.3C121.1 30.7 106.6 61.4 84 76.4C61.4 91.5 30.7 91 7.2 83.7C-16.2 76.5 -32.4 62.5 -55.9 47.5C-79.4 32.4 -110.2 16.2 -112.9 -2.7C-115.6 -21.7 -90.3 -43.3 -66.8 -62.5C-43.3 -81.7 -21.7 -98.5 3.2 -101.7C28 -104.8 56 -94.4 78.6 -75.2Z" stroke="#809BCA" fill="none" stroke-width="20" opacity="0.2"></path></g><g transform="translate(828 135)">
                    <path d="M48.9 -59.8C60.1 -37.7 63.7 -18.9 66 2.4C68.4 23.6 69.5 47.1 58.3 66.2C47.1 85.2 23.6 99.7 4.2 95.5C-15.1 91.2 -30.1 68.2 -45.8 49.2C-61.5 30.1 -77.9 15.1 -77.6 0.2C-77.4 -14.6 -60.5 -29.1 -44.8 -51.2C-29.1 -73.3 -14.6 -102.8 2.1 -105C18.9 -107.1 37.7 -81.8 48.9 -59.8Z" stroke="#809BCA" fill="none" stroke-width="20" opacity="0.2"></path></g><g transform="translate(20 595)">
                        <path d="M53 -47.1C70.1 -35.9 86.4 -17.9 84 -2.5C81.5 13 60.2 26 43.1 40.5C26 55.1 13 71.3 -0.1 71.4C-13.2 71.5 -26.5 55.6 -35 41C-43.5 26.5 -47.4 13.2 -48.6 -1.2C-49.7 -15.6 -48.3 -31.2 -39.8 -42.4C-31.2 -53.6 -15.6 -60.4 1.2 -61.6C17.9 -62.7 35.9 -58.3 53 -47.1Z" stroke="#809BCA" fill="none" stroke-width="20" opacity="0.2"></path></g><g transform="translate(276 4)">
                            <path d="M57.8 -55.3C75.8 -39.7 92.1 -19.8 87.5 -4.6C83 10.7 57.5 21.4 39.5 32.7C21.4 44 10.7 55.8 -8 63.8C-26.8 71.9 -53.5 76.1 -70.5 64.8C-87.5 53.5 -94.6 26.8 -87.7 6.9C-80.8 -12.9 -59.8 -25.9 -42.8 -41.5C-25.9 -57.1 -12.9 -75.5 3.5 -78.9C19.8 -82.4 39.7 -71 57.8 -55.3Z" stroke="#809BCA" fill="none" stroke-width="20" opacity="0.2"></path></g></g></svg>