<svg id="visual" viewBox="0 0 900 600" width="900" height="600" xmlns="http://www.w3.org/2000/svg" xmlns:xlink="http://www.w3.org/1999/xlink" version="1.1">
    <path d="M0 374L21.5 386C43 398 86 422 128.8 427C171.7 432 214.3 418 257.2 414.2C300 410.3 343 416.7 385.8 413.2C428.7 409.7 471.3 396.3 514.2 400.7C557 405 600 427 642.8 428.8C685.7 430.7 728.3 412.3 771.2 400.7C814 389 857 384 878.5 381.5L900 379L900 601L878.5 601C857 601 814 601 771.2 601C728.3 601 685.7 601 642.8 601C600 601 557 601 514.2 601C471.3 601 428.7 601 385.8 601C343 601 300 601 257.2 601C214.3 601 171.7 601 128.8 601C86 601 43 601 21.5 601L0 601Z" fill="#e4e4e4" fill-opacity="0.1"></path>
    <path d="M0 441L21.5 441.5C43 442 86 443 128.8 448.8C171.7 454.7 214.3 465.3 257.2 466.3C300 467.3 343 458.7 385.8 456.3C428.7 454 471.3 458 514.2 457.7C557 457.3 600 452.7 642.8 455.7C685.7 458.7 728.3 469.3 771.2 464.7C814 460 857 440 878.5 430L900 420L900 601L878.5 601C857 601 814 601 771.2 601C728.3 601 685.7 601 642.8 601C600 601 557 601 514.2 601C471.3 601 428.7 601 385.8 601C343 601 300 601 257.2 601C214.3 601 171.7 601 128.8 601C86 601 43 601 21.5 601L0 601Z" fill="#cbcbcb" fill-opacity="0.1"></path>
    <path d="M0 465L21.5 471.5C43 478 86 491 128.8 489.3C171.7 487.7 214.3 471.3 257.2 462.5C300 453.7 343 452.3 385.8 453.3C428.7 454.3 471.3 457.7 514.2 461.2C557 464.7 600 468.3 642.8 466.2C685.7 464 728.3 456 771.2 457.2C814 458.3 857 468.7 878.5 473.8L900 479L900 601L878.5 601C857 601 814 601 771.2 601C728.3 601 685.7 601 642.8 601C600 601 557 601 514.2 601C471.3 601 428.7 601 385.8 601C343 601 300 601 257.2 601C214.3 601 171.7 601 128.8 601C86 601 43 601 21.5 601L0 601Z" fill="#b3b3b3" fill-opacity="0.1"></path>
    <path d="M0 483L21.5 487.2C43 491.3 86 499.7 128.8 502.3C171.7 505 214.3 502 257.2 505.8C300 509.7 343 520.3 385.8 524.5C428.7 528.7 471.3 526.3 514.2 519C557 511.7 600 499.3 642.8 492.7C685.7 486 728.3 485 771.2 486.2C814 487.3 857 490.7 878.5 492.3L900 494L900 601L878.5 601C857 601 814 601 771.2 601C728.3 601 685.7 601 642.8 601C600 601 557 601 514.2 601C471.3 601 428.7 601 385.8 601C343 601 300 601 257.2 601C214.3 601 171.7 601 128.8 601C86 601 43 601 21.5 601L0 601Z" fill="#9c9c9c" fill-opacity="0.1"></path>
    <path d="M0 532L21.5 531.7C43 531.3 86 530.7 128.8 536.3C171.7 542 214.3 554 257.2 560.8C300 567.7 343 569.3 385.8 564.3C428.7 559.3 471.3 547.7 514.2 548C557 548.3 600 560.7 642.8 560C685.7 559.3 728.3 545.7 771.2 544.2C814 542.7 857 553.3 878.5 558.7L900 564L900 601L878.5 601C857 601 814 601 771.2 601C728.3 601 685.7 601 642.8 601C600 601 557 601 514.2 601C471.3 601 428.7 601 385.8 601C343 601 300 601 257.2 601C214.3 601 171.7 601 128.8 601C86 601 43 601 21.5 601L0 601Z" fill="#858585" fill-opacity="0.1"></path></svg>