<svg xmlns="http://www.w3.org/2000/svg" width="42" height="19" xmlns:v="https://vecta.io/nano"><path fill="#f6f6fe" d="M1 1v6h1v2h1v1h1v1h1v1h2v1h28v-1h2v-1h1v-1h1V9h1V7h1V1h-5v1h-1v1h-1v2h-1v1h-2v1H11V6H9V5H8V3H7V2H6V1H1z"/><path fill="#f0effe" d="M8 5v1h1V5H8z"/><path fill="#e1dffc" d="M7 4v1h1V4H7z"/><path fill="#b7b3f6" d="M2 1v5h1v2h1v1h1v1h1v1h1v1h28v-1h1v-1h1V9h1V8h1V6h1V1h-4v1h-1v2h-1v1h-1v1h-1v1H11V6H8V5H7V2H6V1H2z"/><path fill="#cbc8fa" d="M13 8v4h16V8H13z"/><path fill="#1e14de" d="M1 6v1h1V6H1zm1 2v1h1v1h1v1h1v1h1v-1H5v-1H4V9H3V8H2zm11 0v1h1V8h-1zm2 2v1h1v-1h-1zm2-2v1h1V8h-1zm2 2v1h1v-1h-1zm2-2v1h1V8h-1zm2 2v1h1v-1h-1zm2-2v1h1V8h-1zm2 2v1h1v-1h-1zm9 2h1v-1h1v-1h1V9h1V7h1V6h-1v2h-1v1h-1v1h-1v1h-1v1z"/><path fill="#fff" d="M14 9v1h1V9h-1zm2 2v1h1v-1h-1zm2-2v1h1V9h-1zm2 2v1h1v-1h-1zm2-2v1h1V9h-1zm2 2v1h1v-1h-1zm2-2v1h1V9h-1zm2 2v1h1v-1h-1z"/><path fill="#6d64ea" d="M1 1v5h1v2h1v1h1v1h1v1h1v1h1v1h28v-1h1v-1h1v-1h1V9h1V8h1V6h1V1h-1v5h-1v2h-1v1h-1v1h-1v1h-1v1H7v-1H6v-1H5V9H4V8H3V6H2V1H1z"/></svg>