<svg xmlns="http://www.w3.org/2000/svg" width="80.702" height="14.545" viewBox="0 0 80.702 14.545"><g id="Group_66" data-name="Group 66" transform="translate(-22.604 -715.529)"><path id="Path_35" data-name="Path 35" d="M134.349-135.654c-.329.077-.349.5-.349,5.6v5.5h1.162v-5.617C135.162-136.061,135.181-135.886,134.349-135.654Z" transform="translate(-92.986 851.3)"></path><path id="Path_36" data-name="Path 36" d="M214.445-135.785l-.445.077v11.02h1.356V-130.3c0-4.377-.058-5.617-.232-5.6C214.988-135.882,214.678-135.823,214.445-135.785Z" transform="translate(-157.492 851.43)"></path><path id="Path_37" data-name="Path 37" d="M44.047-134.516a7.222,7.222,0,0,0-4.823,3.622,5.189,5.189,0,0,0,.077,3.583,7.85,7.85,0,0,0,2.44,2.615c.31.174.329.252.019,1.394a5.659,5.659,0,0,0-.252,1.394c.039.1.717-.271,1.511-.794,1.375-.91,1.53-.968,2.711-.968a7.192,7.192,0,0,0,6.624-3.544,4.8,4.8,0,0,0,0-3.932,7.5,7.5,0,0,0-3.467-2.983A10.857,10.857,0,0,0,44.047-134.516Z" transform="translate(-16.339 850.413)"></path><path id="Path_38" data-name="Path 38" d="M145.11-116.37c-1.3,1.7-1.453,1.995-1.24,2.285.136.194.891,1.143,1.685,2.111,1.24,1.549,1.472,1.762,1.8,1.588.7-.387.581-.736-.813-2.4l-1.394-1.646,1.1-1.375a7.944,7.944,0,0,0,1.143-1.666.831.831,0,0,0-.387-.562C146.64-118.288,146.524-118.21,145.11-116.37Z" transform="translate(-100.881 837.11)"></path><path id="Path_39" data-name="Path 39" d="M174.034-118.765c-1.3.271-1.646.62-1.278,1.2.136.213.291.213.794.039a3.231,3.231,0,0,1,2.4.039,2.8,2.8,0,0,1,.581,1.917,3.836,3.836,0,0,1-1.375.155c-2.15,0-3.157.794-3.157,2.5a1.813,1.813,0,0,0,.562,1.414,1.524,1.524,0,0,0,1.511.639,3.72,3.72,0,0,0,1.762-.445c.833-.426.852-.426.949-.039a.52.52,0,0,0,.562.387h.465v-2.963c0-2.421-.058-3.06-.349-3.622A2.912,2.912,0,0,0,174.034-118.765Zm2.537,5.036c.019.968-.039,1.085-.833,1.491-1.511.775-2.847.077-2.46-1.3.213-.736,1.065-1.1,2.4-1.046l.872.039Z" transform="translate(-123.626 837.703)"></path><path id="Path_40" data-name="Path 40" d="M224.672-117.024l-1.472,1.976,1.666,2.072c.93,1.143,1.724,2.092,1.782,2.092a2.461,2.461,0,0,0,.562-.368l.445-.387-1.375-1.627a11.584,11.584,0,0,1-1.375-1.859,8.878,8.878,0,0,1,1.2-1.685l1.181-1.453-.465-.368a2.462,2.462,0,0,0-.562-.368A23.9,23.9,0,0,0,224.672-117.024Z" transform="translate(-164.91 837.803)"></path><path id="Path_41" data-name="Path 41" d="M253.53-118.4c-.813.252-.91.349-.794.717.174.581.155.581.988.349,1.782-.5,2.711-.077,2.905,1.3l.116.813h-1.453a3.107,3.107,0,0,0-2.111.445,2.226,2.226,0,0,0-.833,3.06c.6,1.162,2.247,1.394,3.719.542.794-.465.813-.465.813.019,0,.291.136.387.484.387h.484v-3.06a12.084,12.084,0,0,0-.252-3.506C257-118.52,255.293-118.966,253.53-118.4Zm3.157,4.9c0,.813-.077.988-.523,1.278a2.928,2.928,0,0,1-2.479.291,1.721,1.721,0,0,1,.058-1.975c.407-.387.852-.484,2.034-.523l.91-.019Z" transform="translate(-188.171 837.517)"></path><path id="Path_42" data-name="Path 42" d="M294.2-118.516a3.8,3.8,0,0,0-1.975,1.879,6.671,6.671,0,0,0,.174,4.338,3.409,3.409,0,0,0,5.907-.019,4.492,4.492,0,0,0,.426-2.3c0-1.743-.484-2.905-1.453-3.506A4.479,4.479,0,0,0,294.2-118.516Zm2.227,1.162c.639.349.988,1.3.988,2.711,0,2.053-.6,2.905-2.072,2.905a1.619,1.619,0,0,1-1.762-1.065,6.947,6.947,0,0,1-.1-3.447A2.151,2.151,0,0,1,296.424-117.354Z" transform="translate(-220.336 837.512)"></path><path id="Path_43" data-name="Path 43" d="M339.479-118.553c-.581.31-.717.329-.813.1-.058-.194-.387-.291-.891-.291H337v10.652h2.13v-2.711h1.007a3.546,3.546,0,0,0,3.215-1.7,3.883,3.883,0,0,0,.523-2.557c0-1.917-.387-2.925-1.336-3.506A3.4,3.4,0,0,0,339.479-118.553Zm1.937,1.859a1.939,1.939,0,0,1,.426,1.511c0,1.937-.678,2.828-2.13,2.828h-.6l.058-2.363c.058-2.343.058-2.363.542-2.5A1.554,1.554,0,0,1,341.416-116.693Z" transform="translate(-256.67 837.743)"></path><path id="Path_44" data-name="Path 44" d="M380.453-118.5c-1.026.407-1.085.484-.755,1.24.213.484.349.62.6.5a8.008,8.008,0,0,1,1.433-.232c1.026-.1,1.123-.077,1.433.407.542.833.29,1.085-1.123,1.085-1.917,0-3.041.93-3.041,2.518a2.513,2.513,0,0,0,1.278,2.13,3.279,3.279,0,0,0,2.615-.194c.659-.349.775-.368.872-.1q.116.291.872.291h.755v-2.808c0-3.06-.155-3.719-1.046-4.551-.426-.387-.755-.484-1.821-.523A5.813,5.813,0,0,0,380.453-118.5Zm2.905,5.036c0,.736-.039.794-.833,1.065-.988.329-1.453.136-1.549-.659-.116-.891.465-1.259,1.8-1.2C383.319-114.242,383.358-114.184,383.358-113.467Z" transform="translate(-290.535 837.596)"></path><path id="Path_45" data-name="Path 45" d="M417.736-118.655c-.407.116-.736.252-.736.329,0,.116,2.072,5.83,2.615,7.2.077.213-.174.678-.736,1.375l-.872,1.065.678.542.678.523.678-.639c1.007-.988,1.627-2.247,3.021-6.081.7-1.917,1.317-3.622,1.394-3.8.1-.252-.077-.368-.872-.562a3.372,3.372,0,0,0-1.065-.155c-.058.039-.465,1.375-.91,2.944a9.432,9.432,0,0,1-.93,2.6c-.077-.136-.484-1.453-.891-2.905C418.976-119.081,419.053-119,417.736-118.655Z" transform="translate(-321.176 837.69)"></path></g></svg>