<?xml version="1.0" encoding="UTF-8" standalone="no"?>
<!DOCTYPE svg PUBLIC "-//W3C//DTD SVG 20010904//EN"
              "http://www.w3.org/TR/2001/REC-SVG-20010904/DTD/svg10.dtd">

<svg xmlns="http://www.w3.org/2000/svg"
     viewBox="0 0 50 50">
  <g id="g1">
  <g id="leaf">
	<path d="M 25,25 C 23,21 24.5,17 25,17 25.5,17 27,21 25,25 Z" fill="ghostwhite" stroke="silver" stroke-width=".5"/>
	<path d="M 25,25 C 24.5,21 24.8,17 25,17 25.2,17 25.5,21 25,25 Z" fill="silver" />
  </g>
  <use href="#leaf" transform="rotate(40 25 25)"/>
  <use href="#leaf" transform="rotate(80 25 25)"/>
  <use href="#leaf" transform="rotate(120 25 25)"/>
  <use href="#leaf" transform="rotate(160 25 25)"/>
  <use href="#leaf" transform="rotate(200 25 25)"/>
  <use href="#leaf" transform="rotate(240 25 25)"/>
  <use href="#leaf" transform="rotate(280 25 25)"/>
  <use href="#leaf" transform="rotate(320 25 25)"/>
  <polygon points="23,24.5 25,21.5 25,24.5" fill="ghostwhite" />
  <polygon points="23,24.5 25,27.5 25,21.5 27,24.5" fill="lightgray"/>
  <polygon points="27,24.5 25,27.5 25,24.5" fill="silver" />
  </g>
  <use href="#g1" x="-15"/><use href="#g1" x="15"/>
</svg>
