<?xml version="1.0" encoding="UTF-8" standalone="no"?>
<!DOCTYPE svg PUBLIC "-//W3C//DTD SVG 20010904//EN"
              "http://www.w3.org/TR/2001/REC-SVG-20010904/DTD/svg10.dtd">

<svg xmlns="http://www.w3.org/2000/svg"
     viewBox="0 0 50 50">
  <g id="g1">
  <g id="leaf">
	<path d="M 17.5,25 C 15.5,21 17,17 17.5,17 18,17 19.5,21 17.5,25 Z" fill="ghostwhite" stroke="silver" stroke-width=".5"/>
	<path d="M 17.5,25 C 17,21 17.3,17 17.5,17 17.7,17 18,21 17.5,25 Z" fill="silver" />
  </g>
  <use href="#leaf" transform="rotate(40 17.5 25)"/>
  <use href="#leaf" transform="rotate(80 17.5 25)"/>
  <use href="#leaf" transform="rotate(120 17.5 25)"/>
  <use href="#leaf" transform="rotate(160 17.5 25)"/>
  <use href="#leaf" transform="rotate(200 17.5 25)"/>
  <use href="#leaf" transform="rotate(240 17.5 25)"/>
  <use href="#leaf" transform="rotate(280 17.5 25)"/>
  <use href="#leaf" transform="rotate(320 17.5 25)"/>
  <polygon points="15.5,24.5 17.5,21.5 17.5,24.5" fill="ghostwhite" />
  <polygon points="15.5,24.5 17.5,27.5 17.5,21.5 19.5,24.5" fill="lightgray"/>
  <polygon points="19.5,24.5 17.5,27.5 17.5,24.5" fill="silver" />
  </g>
  <use href="#g1" x="15"/>
</svg>
