<svg xmlns="http://www.w3.org/2000/svg" viewBox="0 0 700 700"><path fill="#DBB98F" stroke="#000" stroke-width="1" d="M597 212s123 158 5 327l-71-1c-108-130-8-324-8-324l74-2Z"/><path fill="#fff" stroke="#000" stroke-width="1" d="M508.5 164c33 270 114 139.5 114 .5l-114-.5Z"/><path fill="#FFCCA9" d="M514 162.7h106.7c.3 40.8-15.7 57.8-15.7 57.8a54 54 0 0 0-75.5 0s-13.5-16-15.5-57.8Zm71.5 70.8c-.7 16.7-39 12.7-39 0 .7-20.7 36.3-26 39 0Z"/><path fill="#000" stroke="#000" stroke-width="1" d="M551.5 180c0 6.8-11.5 7.3-11.5.5s11.5-7.3 11.5-.5ZM586 180c0 6.8-11.5 7.3-11.5.5s11.5-7.3 11.5-.5Z"/><path fill="#DBB98F" stroke="#000" stroke-width="1" d="M509.5 138c-34.5 4-54.5 27.5-54.5 27.5s215-1.5 217-.5-14-25-47.5-26.5c0 0-9-47.5-19-55.5S545 74 532 81.5 509.5 138 509.5 138Z"/><path fill="#ECE9E0" stroke="#000" stroke-width="1" d="m67 386-1 197 497-1 4-242-373-5-127 51Z"/><path fill="#AE4B2E" d="M122 498c0-.1 13.3-5.7 17.3-.3 4 5.3 13 22.6 20 0 7-22.7 23.3-26 31.9.6 8.5 26.7 16.8 8 24.1-4.6 7.4-12.7 16.4-.6 16.7.3"/><path fill="#000" stroke="#000" stroke-width="1" d="M187 596c-.1-.2-45 0-45 0-22 2-22 61 1 62l43 1c27 2 31-65 1-63Zm150 63h-41c-26 1-28-84 0-84h41c32-3 36 82 0 84Zm192 1h-42c-23-1-28-99-2-98h44c32 0 32 97 0 98Z"/><path fill="#333" stroke="#000" stroke-width="1" d="m65 579 212 1s-1-22 21-22l169-1c30 2 43-36 64-36 36 .8 39.9 2.3 41.2 62.9 0 0-2.2 41.1-32.2 43.1-1-83-45-90-48.2.2l-139.8.6c0-68.8-47-68.8-48.8.3L94 629c-21-2-29-50-29-50Z"/><path fill="#000" stroke="#000" stroke-width="1" d="M275 390s2-45 22-45h273s5-46-18-48H115c-51 0-50 93-50 93h210Z"/></svg>
