<svg xmlns="http://www.w3.org/2000/svg" viewBox="0 0 1000 1000"><path fill="none" stroke="#d84" stroke-width="20" d="M232 437c-3-445 585-448 582 4"/><path fill="#d84" stroke="#000" stroke-width="10" d="M206.7 479.3s80.8 256.5 128 258l368.6-2C772.7 734 846 469.5 846 469.5l-639.3 9.8Z"/><path fill="#ea4" stroke="#000" stroke-width="10" d="m174 439.5 686.7 1.2c32.6 0 38 44 1.3 44.6l-691 .7c-31.7-2-35-48.7 3-46.5Z"/><path fill="none" stroke="#850" stroke-linecap="round" stroke-width="10" d="m181 461 323-2m-172 63 42 188m33-191 16 185m37-118 4 68m273-138-45 198M539 567l246-4m-473 75h238m-243-27 371-13"/></svg>
