<svg xmlns="http://www.w3.org/2000/svg" viewBox="0 0 714 258"><defs><radialGradient xmlns="http://www.w3.org/2000/svg" id="egcrash" cx="50%" cy="100%" fx="50%" fy="100%"><stop offset="0%" stop-color="#ffffff00"/><stop offset="100%" stop-color="#fff"/></radialGradient></defs><path fill="url(#egcrash)" stroke="#000" stroke-width="2" d="M-.5 258H715s-153.3-4-168-10.5c-54-26.2 85.3-69.5 78-88.8-7.3-19.4-156.7 65.3-172.5 51.3-15.8-14 51.2-152.7 27-142.5-24.2 10.2-67.8 134.5-103.5 153S271 232.7 250 210 205-2.7 175 0c-30 2.7 23.3 168.7 6 183-17.3 14.3-66-57-66-57s26 61.3 9 67.5c-17 6.2-57.7-48.2-64.5-37.5-6.8 10.7 55.2 61.7 54 76.5C112.3 247.3-.5 258-.5 258ZM527 8.7c-34.7-3.4-35.3 36-5.3 40.6 30 4.7 40-37.3 5.3-40.6ZM43.7 72c-30 31.3 32 32 32 32s-2-63.3-32-32Z"/><path fill="#ffc22b" stroke="#ff4" d="M120.2 257.8c18.4 0 19-32.6 40.4-33 25.4-1.9 35.4 39 95.4 31.5 22.6-7.6 50.7-11.2 69.4 1.3l-205.2.2Zm258-.2c27.6-1.5 56.2-19.5 74.9-16.5 18.7 3 8.5 16.7 8.5 16.7l-83.4-.2Z"/></svg>
