<svg xmlns="http://www.w3.org/2000/svg" viewBox="0 0 651 890"><path id="plasticBagPath" stroke="#000" d="M 6.00,30.50 C 6.00,30.50 1.50,785.00 1.50,785.00 1.50,785.00 228.50,773.50 250.50,772.00 272.50,770.50 339.50,768.00 366.00,767.00 392.50,766.00 411.00,762.00 430.00,761.50 449.00,761.00 649.50,750.50 649.50,750.50 649.50,750.50 612.00,2.00 612.00,2.00 612.00,2.00 493.50,11.00 493.50,11.00 493.50,11.00 499.50,237.50 499.50,237.50 499.50,237.50 133.50,248.00 133.50,248.00 133.50,248.00 133.50,24.50 133.50,24.50 133.50,24.50 6.00,30.50 6.00,30.50 Z"/></svg>
