<?xml version="1.0" encoding="UTF-8" standalone="no"?>
<!DOCTYPE svg PUBLIC "-//W3C//DTD SVG 20010904//EN"
              "http://www.w3.org/TR/2001/REC-SVG-20010904/DTD/svg10.dtd">

<svg xmlns="http://www.w3.org/2000/svg" viewBox="0 65 170 170">
  <defs>
    <linearGradient id="hat_Grad" gradientTransform="rotate(15,.5,.5)">
	  <stop offset="0" stop-color="#312b4b" />
	  <stop offset="0.2" stop-color="#312b4b" />
	  <stop offset="0.63" stop-color="#5a5376" />
	  <stop offset="0.9" stop-color="#312b4b" />
	</linearGradient>
  	<linearGradient id="glass_Grad" gradientTransform="rotate(60)">
		<stop offset="0%" stop-color="#ffffff77"/>
		<stop offset="29%" stop-color="#ffffff77"/>
		<stop offset="30%" stop-color="white"/>
		<stop offset="50%" stop-color="white"/>
		<stop offset="51%" stop-color="#ffffff77"/>
		<stop offset="79%" stop-color="#ffffff77"/>
		<stop offset="80%" stop-color="white"/>
		<stop offset="90%" stop-color="white"/>
		<stop offset="91%" stop-color="#ffffff77"/>
	</linearGradient>
  </defs>
  <path id="fico" fill="#5a5376" d="M 117.09,184.00
           C 117.09,184.00 175.16,263.07 117.00,344.00
             117.00,344.00 48.55,344.00 48.55,344.00
             -8.92,257.63 48.55,184.00 48.55,184.00
             48.55,184.00 117.09,184.00 117.09,184.00 Z" />
  <path id="f_beard" fill="white" d="M 49.00,133.00
           C 49.00,344.00 115.00,344.00 115.00,133.00
             115.00,133.00 49.00,133.00 49.00,133.00 Z" />
  <path id="f_face" fill="#ffcca9" d="M 49.00,133.00
           C 49.00,133.00 114.91,133.09 114.91,133.09
             115.27,161.27 105.82,175.45 105.82,175.45
             88.18,161.09 76.12,160.88 58.00,175.00
             58.00,175.00 48.75,161.25 49.00,133.00 Z
           M 95.09,184.00
           C 95.09,193.27 69.09,193.64 69.09,184.00
             68.91,168.18 95.09,168.73 95.09,184.00 Z" />
  <path id="hat" fill="#5a5376" d="M 159.91,134.55
           C 157.73,127.18 120.72,136.96 81.36,135.27
             42.73,132.76 14.03,129.36 4.50,134.75
             12.25,120.75 46.25,119.75 49.59,112.30
             49.95,17.20 206.25,-16.08 229.00,78.67
             220.64,45.39 115.09,14.91 114.73,112.91
             130.18,113.64 162.53,128.05 159.91,134.55 Z">
  </path>
  <path id="hat_valley" fill="url(#hat_Grad)" d="M 114.27,113.18
           C 117.60,113.11 100.32,122.27 74.55,122.82
             74.77,123.12 105.87,117.95 104.55,116.18
             104.55,116.18 88.36,115.09 88.36,115.09
             88.88,114.56 112.02,115.79 114.27,113.18 Z
           M 147.27,22.36
           C 124.67,26.33 109.33,31.67 106.67,36.67
             106.67,36.67 127.25,35.25 127.25,35.25
             115.69,39.06 113.96,33.54 90.33,50.67
             80.46,61.42 81.33,62.00 75.33,83.33
             88.21,85.08 88.10,84.67 99.67,67.67
             90.27,87.98 93.29,87.62 75.67,90.00
             69.54,91.50 74.42,103.58 77.67,104.33
             77.80,104.91 92.50,109.09 91.69,105.44
             92.21,105.38 92.10,107.80 90.94,107.94
             91.10,108.56 51.78,115.03 50.25,112.50
             47.56,67.25 90.00,27.00 147.27,22.36 Z
           M 136.73,55.45
           C 136.22,59.20 119.24,56.51 119.64,53.64
             118.81,54.37 127.81,63.98 134.00,58.55
             134.00,58.55 136.73,55.45 136.73,55.45 Z
           M 125.82,66.91
           C 123.45,72.36 114.97,72.64 114.91,70.00
             114.75,70.36 121.15,76.72 122.55,73.64
             122.55,73.64 125.82,66.91 125.82,66.91 Z
           M 116.36,92.00
           C 115.27,95.27 105.11,96.76 104.36,96.18
             104.85,96.93 117.10,97.62 115.82,95.64
             115.82,95.64 116.36,92.00 116.36,92.00 Z
           M 4.48,134.78
           C 12.30,129.83 43.78,132.43 49.00,133.00
             49.00,133.00 49.00,139.00 49.00,139.00
             39.91,131.73 7.09,142.82 4.48,134.78 Z
           M 114.88,134.50
           C 114.88,134.50 115.06,140.19 115.06,140.19
             115.11,140.48 129.12,141.38 137.88,136.62
             144.00,133.25 158.76,136.50 159.81,134.75
             159.44,128.38 129.75,133.69 114.88,134.50 Z
           M 76.25,113.62
           C 76.25,113.62 49.88,113.38 49.88,113.38
             42.00,119.00 14.00,122.00 4.82,134.29
             7.78,130.83 36.28,131.40 38.35,132.09
             39.73,123.82 58.09,114.18 76.25,113.62 Z
           M 49.64,133.00
           C 60.00,133.91 92.18,137.55 114.36,134.36M 118.55,82.91
           C 118.48,85.99 109.61,85.43 109.64,84.00
             109.17,84.73 115.65,89.25 117.27,86.73
             117.27,86.73 118.55,82.91 118.55,82.91 Z" />
  <circle id="righteye" fill="black" cx="69" cy="148" r="3" stroke="none" stroke-width="3"/>			 
  <circle id="lefteye" fill="black" cx="95" cy="148" r="3" stroke="none" stroke-width="3"/>	
  <circle id="glass" fill="url(#glass_Grad)" cx="95" cy="148" r="9" stroke="lightgray" stroke-width="2"/>
  <path id="glasslead" stroke="lightgray" stroke-width="2" fill="none" 
    stroke-linecap="round" stroke-dasharray="4 3" d="M 99,157 C 99,200 110,190 114,184"/>
</svg>
