<svg xmlns="http://www.w3.org/2000/svg" viewBox="0 0 676 1080"><path fill="#303550" d="M46.6 28c2.7-.6 5.8.7 4.2 3.7-1.5 3-7.8 1.4-4.2-3.6Zm283.1 1c6-2.4 7 3.2 4.7 5.4-2.6 2.5-8.1-.2-4.7-5.4ZM512 30.8c7.8-.5 7.8 7.6 2.9 9.4-5.3 2-10.3-5.2-2.9-9.4Zm-313.5 2.3c2.5-.6 5.6.4 4.1 3.6-1.5 3.3-8 1.3-4.1-3.6Zm353.7 4c8.8-2.8 9.4 7.3 3.8 9-4.4 1.4-9.2-4-3.8-9Zm-283.1 3c5.6 1 4.8 6 1.7 7-3.9 1.4-8-4-1.7-7ZM385 45c7.9-1.8 8 5.3 3.9 7.5-2.7 1.4-11 2-8.7-3.4.8-2 3-3.1 4.8-4.1Zm62.3 5c7.5-2.2 7.8 6 3.6 7.3-3.6 1.3-8-2.6-3.6-7.3Zm-298 5c5.4-1.2 4.8 3.6 3.1 4.8-2 1.3-6.8-.4-3-4.7Zm-54 1c6.3-1.3 6.3 5.2 3.4 6.3-2.7 1-7.5-1.7-3.4-6.2Zm393.8 4.8c8-.5 8 7.7 3.7 9.4-5.2 2.2-11.4-4.9-3.7-9.4ZM28.3 65.2c5.2-.6 4.8 4.2 2.4 5.1-2.3 1-6.3-1.2-2.4-5.1Zm182 .9c6-1.4 6 4.3 3.4 5.8s-7.6-1.3-3.4-5.8Zm214 3c6.5-2 6.2 4.2 4.1 5.7-2.6 2-8.6-.8-4-5.8ZM14.6 71c6.8-2.7 7.2 4 4 5.8-2.7 1.6-7-1.3-4-5.9Zm573.6 2c8.5-2.7 9 6.3 4.6 8.6-4.2 2.1-10.8-2.9-4.6-8.7ZM538 76.7c8.2-.5 7.8 7.9 2.9 9.6-5.2 1.8-10.3-5.4-2.9-9.6ZM291.5 80c6.7-2 7.2 4.8 3.3 6.2-3.1 1-6.8-1.9-3.3-6.2Zm98.1 2c6-2.4 7 3.2 4.8 5.4-2.6 2.5-8.2-.3-4.8-5.4Zm-19.4 1c9-2.7 9.4 7.4 3.8 9.2-4.2 1.2-9.1-4.1-3.8-9.2Zm254.9-.2c8.6-1.3 7.7 7.8 3.7 9.4-4.8 2-11.3-4.7-3.7-9.4ZM355.3 86c6.3-1.4 6.3 5.1 3.4 6.2-2.7 1-7.5-1.7-3.4-6.2ZM492 89c6.8 1.2 4.6 7.3 1 8-4 1-7.6-5-1-8Zm-417.7 2c2.3-.2 5 .6 3.5 3.6-1.6 3.3-8.2 1.3-3.5-3.5ZM233.1 93c6.5.2 5 6.2 1.8 7-3.4.9-7.2-3.8-1.8-7Zm313 1c7.2.3 5.8 7.1 1.8 8-3.9 1-8.5-4.5-1.8-8Zm-132.7 15c7.2-2.2 7.7 5.9 3.5 7.3-3.5 1.3-7.6-2.6-3.5-7.3Zm-109 5c6.8-2 7.5 5 3.5 6.3-3.1 1.1-7.2-1.8-3.5-6.3Zm-47.3 4c6.5.2 5 6.2 1.8 7-3.4.9-7.2-3.8-1.8-7Zm336.2 1c7.4-2.2 7.8 5.8 3.6 7.2-3.6 1.1-8-2.5-3.6-7.2Zm-322.7 5c2.6-.6 5.8.6 4.2 3.7-1.6 3.2-7.8 1.5-4.2-3.6Zm98.8 0c8-2.9 10.3 4.8 6.2 8-4.6 3.4-11.5-2-6.2-8Zm73.7 4.8c8-.5 8 7.8 2.8 9.6-5.3 1.8-10.3-5.4-2.8-9.6Zm-12.8 6c5.4.1 4.5 4.6 2.3 5.6-2.6 1-6.6-2.3-2.3-5.5Zm-14 18.2c6.4-1.9 7.1 3.9 4.3 5.8-3 2-8.4-1-4.3-5.8Zm32.7 14c8 1.9 4 9.8-.9 8.2-3.2-1.1-4.8-6.6 1-8.2Zm82.3 11c7.5-2.2 7.8 6 3.6 7.3-3.6 1.3-8-2.6-3.6-7.3Zm-475 4.8c6.4-.4 5.4 5.5 2.5 6.5-3.3 1.2-8-2.7-2.6-6.5ZM0 203c4 2.3 5 5.2 0 7v-7Zm576 13.9c8 1 4.5 10-.9 8.3-3.3-1.1-4.6-6.4 1-8.3ZM62 229.2c5.5 1 3.3 5.5 1 5.8-2.4.3-5.8-3.3-1-5.8Zm565.2 2.5c9.1-2 8.7 7 4.6 8.9-4.8 2.2-11.1-4.1-4.6-8.9Zm-135 4.3c8.3-2.7 9.1 5.5 5.5 8.1-4.1 3-11.5-2.3-5.5-8Zm39.1 5c7.8-2.6 10 5.2 5.5 8-4.6 2.7-10.5-2.5-5.5-8Zm-505.2 5.2c5.4 1 3.2 5.5.8 5.8-2.3.3-5.7-3.3-.8-5.8Zm570 34.6c7.4-.5 6.4 7.1 2.7 8.4-4.2 1.4-8.6-4.5-2.7-8.4ZM39.2 293c6.7.2 5.2 6.4 1.7 7.2-3.2.7-7-4-1.7-7.2ZM0 328c7 4 8.2 10.9 0 14v-14Zm590.1 10.8c7-.4 6.4 6.2 2.8 7.8-4.4 2-8.7-4-2.8-7.8Zm-561 56a7.8 7.8 0 0 1 5.9 14.5c-9 3.5-17.1-8.3-6-14.6ZM4.4 601c2.5-.6 5.6.4 4.1 3.6-1.5 3.3-8 1.3-4.1-3.6Zm495.8 14c7.5-2.3 7.6 5.7 3.5 7-3.4 1.2-7.8-2.4-3.5-7Zm54.1 5c7.5-2.8 8.4 4.7 4.4 6.8-3.2 1.7-8.4-2-4.4-6.9Zm49 24c7.4-2.3 7.7 5.8 3.5 7.2-3.6 1.3-8-2.6-3.6-7.3ZM453 653.7c8-.5 8 7.8 2.8 9.6-5.3 1.8-10.3-5.4-2.8-9.6Zm74 34c11.3-.9 12.5 13 3.9 15.5-8.9 2.7-16.3-10.6-4-15.6ZM25.5 723c6-2.4 7 3.2 4.8 5.4-2.6 2.6-8.2-.3-4.8-5.4Zm418.8 18c7-2.1 7.3 5 3.4 6.3-3 1.1-7.1-1.8-3.4-6.3Zm141.6 5c8.4-.4 7.6 7.7 2.9 9.4-5.2 1.8-10.3-5.5-2.9-9.5Zm-254.6 14c6.2-1.3 6.8 5.2 3.4 6.6-2.8 1.1-7.5-2-3.4-6.5Zm247 6c7.3-2.4 8.3 4.8 4.4 7-3.5 1.9-9-1.8-4.4-7Zm-201 4c6.3-1.3 6.1 5 2.5 6.3-3.2 1.2-6.6-2-2.6-6.2ZM22.1 790.2c6.5-1.2 5.8 5.2 2.6 6.5-2.8 1.1-7.3-2-2.6-6.5Zm404.4 3c5.8-2 5.6 3.5 3.1 4.7-2 1-5.5-.8-3-4.8Zm110 7c4.3-1.7 8 .7 6.6 4.7-2 5.5-11.8 1.7-6.7-4.8Zm-402 1c6-2 7.2 4 4 5.8-2.7 1.6-7-1.3-4-5.9Zm77.5 2.9c6.5.2 5 6.2 1.8 7.1-3.4 1-7.2-4-1.8-7.1Zm334 11c7.7-1.8 9.3 6.1 4.7 8.8-5 2.9-11.1-3.1-4.7-8.7Zm41.1 6c8.4-2.5 9.3 6.4 4.7 8.7-4.5 2.2-10.6-3-4.7-8.7Zm-515.1 7c4.6.9 3.7 4.6 1.6 5.6-2.7 1.2-6.8-2.6-1.6-5.6Zm192-.3c12.3-1.4 12.5 13.6 3.9 15.7-9.3 2.2-15-11-4-15.7Zm192.9 4.2c12.4 1 10.2 15.4 1 15.8-8.7.4-13.1-13.2-1-15.8Zm-69 8.7c12.4-1.6 12.5 13.5 4 15.5s-15.2-11-4-15.5Zm-240 14a8 8 0 0 1 3 15.7c-8 1.5-15.2-11-3-15.7Zm425 6.2c8-.5 7.7 7.8 2.9 9.6-5.5 2-10.3-5.4-2.9-9.6ZM17.1 864c11.4-3.8 14 10.5 4.9 12.5C15.8 878 10 870 17 864Zm564 14c7.2.2 5.8 7 1.8 8.1-3.8 1-8.8-4.6-1.9-8.1Zm-292 16.6c12.4-1.6 13.6 13.5 3.9 15.8a8.2 8.2 0 0 1-4-15.8Zm-96 9.1c3-.7 5.9-1 8.5 1 5.1 4.1 3.4 13-3.6 14-9 1.4-13.7-9.5-4.9-15Zm31 10.2c11 1.4 7.4 15.2-1 13.4-6.7-1.5-8.5-11.4 1-13.4Zm-111 4.8c12.5-2.7 13.5 11.8 5.9 14.7-8.7 3.4-17.3-8.4-6-14.7Zm527.1 1c9.6-2.1 9.1 7.8 3.8 9.2-5 1.4-9.7-4.9-3.8-9.2ZM516 933c7.3.2 5.9 7 1.9 8.1-3.8 1-8.8-4.6-1.9-8.1Zm61.2 4.8c7.5-.5 6.4 7.3 2.7 8.2-3.7 1-8.5-4.3-2.7-8.2ZM455.3 944c7-2 7.6 5 4.4 7-3.2 1.8-9.3-1.7-4.4-7Zm-293.2 3.8c10.9-2.2 12.3 10.9 3.9 12.7-7 1.6-11.5-8-3.9-12.8Zm456 2c8.8-1.3 8.3 7.8 3.7 9.2-4.7 1.5-10-5-3.7-9.2Zm-322 13c3.4-.9 6.7-1.1 9.5 1.6 3.6 3.7 2.8 10.7-2.6 12.9-9 3.4-15.6-9-6.9-14.6Zm140 3.2c9-2.8 9.3 6.6 4.8 8.6-3.9 1.7-11-3-4.8-8.6Zm230 0c9-2.7 9.5 7.5 3.9 9.2-4.2 1.2-9.8-4-3.9-9.2Zm-165 4.8c8-.5 7.7 7.9 2.8 9.6-5.2 1.8-10.3-5.4-2.8-9.6Zm119.1 7c7.1-.8 6.3 6.3 2.7 7.5-4 1.4-8.4-3.5-2.7-7.5ZM674 982l1 9c-3.5-3.5-3.2-4.7-1-9Zm-602 4.8c10.3.2 9.7 12 2 13-8 1-11.5-9.8-2-13Zm364 8c12.3-3 14.7 11.2 6.9 14.5-9.4 4-17.2-8.5-6.9-14.6Zm108 2.2c7.3.3 5.9 7.1 2 8-3.8 1-8.4-4.5-2-8Zm-173 5.7c12 .5 11 15.5 1 16a8 8 0 0 1-1-16Zm-186 9c12.3-2.7 13.8 11.5 6 14.6-8.6 3.3-16.2-8.6-6-14.6Zm315.1 0c8.6-1.2 7.7 8 3.7 9.5-5 2-10.7-4.9-3.7-9.4Zm-394.1 2c12.2-.6 12 13.8 3 15.8-9.4 2.2-15-11.5-3-15.8Zm465.2 4.3c8.4-2.6 9.3 6.5 4.7 8.7-4.2 2-10.7-3-4.7-8.7ZM27 1039.8c9.7-1.4 11.2 9.9 4.9 12.5-7.7 3.2-14.6-7-4.9-12.5Z"/></svg>
