<svg xmlns="http://www.w3.org/2000/svg" viewBox="0 0 256 256"><path fill="currentColor" d="M77 17c0-16.82-.45-17 5.45-17L127-.18c5 .27 5 .36 5 17.18H77Zm0 9h55v12H77V26ZM0 55c0-20.06-.19-20.38 9-20h51c7.88.12 7.94.06 8 20H0Zm132-2 65.62-17.5c4.88-1.25 5.88-.88 12.38 25.5l-71.5 18.5-6.38-22.12L132 204H77V47h55v6ZM0 64h68v140H0V64Zm141.25 24.12L213 70l2 8-71.62 18-2.13-7.88ZM22.38 77.03c-9.32.03-9.32-.09-9.38 8.97v24c-.12 9.12-.12 8.75 9 9h24c9.06.03 9-.09 9-10V87c.06-9.91.06-10.03-11-10l-21.62.03ZM241 180l-71.25 18.88-23.87-93.38L217 87l24 93Zm-65 44c-.47-3.35-3.62-16-3.62-16l71.37-19.12L248 206l-72 18ZM0 214h68v7H0v-7Zm77 0h55v7H77v-7Zm102 20 72-19c6 22.12 5.88 22.5.75 24l-60.13 16.5c-6.53 1.59-7.12 1.62-12.62-21.5ZM0 231h68c0 25.5 0 24.88-10 25H7c-7.49-.14-7-.25-7-25Zm77 0h55c-.25 25.25-.12 24.75-7.88 25H84.25c-7.37-.12-7.5-.25-7.25-25Z"/></svg>
