<svg id="visual" viewBox="0 0 900 600" width="900" height="600" xmlns="http://www.w3.org/2000/svg" xmlns:xlink="http://www.w3.org/1999/xlink" version="1.1">
    <g transform="translate(437.83876904300377 295.5103623477264)">
        <path d="M148.8 -187.2C176.4 -154.3 170.9 -91.7 181 -32.2C191.1 27.2 216.8 83.6 206.3 135.5C195.9 187.3 149.2 234.6 100.3 234.8C51.3 234.9 0 187.9 -41.1 154.8C-82.1 121.6 -112.9 102.3 -135.4 73.4C-157.9 44.4 -172 5.8 -179.8 -45.8C-187.5 -97.5 -188.9 -162.1 -157.9 -194.5C-126.8 -226.8 -63.4 -226.9 -1.4 -225.3C60.6 -223.6 121.3 -220.2 148.8 -187.2" fill="#FFFFFF" fill-opacity="0.4">

        </path>
    </g>
</svg>