<svg id="visual" viewBox="0 0 900 600" width="900" height="600" xmlns="http://www.w3.org/2000/svg" xmlns:xlink="http://www.w3.org/1999/xlink" version="1.1">
    <g transform="translate(465.8586833663721 322.5031132979823)">
        <path d="M142 -192.1C168.8 -146.8 164.7 -87.6 161.1 -38.6C157.5 10.3 154.5 48.9 136.6 77.7C118.6 106.6 85.6 125.6 44.9 153.5C4.2 181.4 -44.2 218 -91.4 216.1C-138.6 214.1 -184.5 173.6 -193.6 126.8C-202.8 80 -175.3 27 -158.1 -20.5C-140.9 -67.9 -134.1 -109.8 -109.5 -155.5C-84.8 -201.1 -42.4 -250.6 7.6 -259.6C57.6 -268.7 115.3 -237.4 142 -192.1" fill="#FFFFFF" fill-opacity="0.4">

        </path>
    </g>
</svg>